<svg xmlns="http://www.w3.org/2000/svg" width="160" height="96" viewBox="0 0 160 96" fill="none">
  <path d="M53.2633 24.6123C55.5781 29.3516 54.9812 35.2815 55.0921 40.9146H42.6704C42.4852 36.9595 43.2966 31.0177 41.6259 29.1258C41.0302 28.0799 39.8735 27.8608 38.7526 28.0049C37.5978 28.1185 36.3653 28.6411 35.9556 29.7972C35.4616 30.7388 35.4715 33.8259 35.4323 35.915L35.5844 65.2751C35.694 66.5049 36.2903 67.8821 37.5606 68.2918C38.6802 68.5927 40.2453 68.667 41.1796 67.9558C42.5961 66.8409 42.7455 65.1224 42.8577 63.4476V53.7825H55.2793C55.1678 57.8504 55.5781 62.1408 54.9426 66.0208L38.3429 78.6304C33.235 78.5161 28.1591 77.1734 25.4358 72.4381C23.273 68.4452 22.937 63.7438 23.0127 58.8219L23.0499 33.8644C23.3109 27.635 25.2505 20.6586 31.816 18.4599C36.963 16.8516 43.9009 16.8908 48.5632 19.464C50.542 20.5842 52.408 22.5989 53.2633 24.6123Z" fill="black"/>
  <path d="M126.529 29.6837H116.571L116.532 77.6928H114.33L104.075 69.5649V29.7236L94.3372 29.6837V18.7927H126.529V29.6837Z" fill="black"/>
  <path d="M77.9604 29.4653H77.7353L74.7139 45.7284L81.3152 45.8034L77.9604 29.4653ZM96.9089 63.7061L77.9969 48.524L71.1692 53.6338L59.2317 62.7027L69.3424 18.7927H87.0598L96.9089 63.7061Z" fill="black"/>
  <path d="M45.6565 77.6928L77.7737 53.0753L108.475 77.6589L45.6565 77.6928Z" fill="#F1D60E" stroke="#F1D60E" stroke-width="2.04659"/>
  <path d="M132.726 26.2898C131.592 26.2898 130.613 25.9129 129.791 25.149C128.968 24.3851 128.557 23.4786 128.557 22.4295C128.557 21.3601 128.968 20.4434 129.802 19.6897C130.625 18.9359 131.614 18.5591 132.781 18.5591C133.937 18.5591 134.938 18.9359 135.76 19.6897C136.583 20.4434 136.994 21.3601 136.994 22.4193C136.994 23.499 136.583 24.4157 135.76 25.1592C134.927 25.9129 133.915 26.2898 132.726 26.2898ZM132.726 25.7398C133.904 25.7398 134.849 25.3425 135.538 24.5481C136.105 23.9064 136.394 23.1934 136.394 22.4193C136.394 21.6554 136.105 20.9526 135.538 20.3008C134.849 19.5063 133.926 19.1091 132.781 19.1091C131.636 19.1091 130.713 19.5063 130.013 20.3008C129.446 20.9526 129.168 21.6554 129.168 22.4295C129.168 23.3258 129.513 24.1101 130.213 24.762C130.925 25.4138 131.758 25.7398 132.726 25.7398ZM131.392 24.5277V20.3517H132.826C133.281 20.3517 133.626 20.4332 133.859 20.6063C134.093 20.7795 134.204 21.0341 134.204 21.3804C134.204 21.6249 134.137 21.8591 134.004 22.0629C133.871 22.2564 133.67 22.4397 133.404 22.5823L134.782 24.5277H133.926L132.692 22.786H132.125V24.5277H131.392ZM132.07 22.2666H132.281C132.681 22.2666 132.992 22.1953 133.192 22.0629C133.393 21.9203 133.493 21.7166 133.493 21.4415C133.493 21.2277 133.404 21.0545 133.237 20.9526C133.07 20.8406 132.815 20.7897 132.481 20.7897H132.07V22.2666Z" fill="black"/>
</svg>