<svg xmlns="http://www.w3.org/2000/svg" width="119" height="40" viewBox="0 0 119 40" fill="none">
  <path d="M10.3225 26.9432H109.385L106.375 38.655H1.6665" fill="black"/>
  <path d="M28.6272 29.8218C27.6965 29.4332 26.9863 29.2634 26.2858 29.2634C24.1162 29.2634 22.5446 30.7781 22.5446 32.8549C22.5446 34.2828 23.6654 36.2501 26.2262 36.2501C27.2957 36.2501 28.0266 36.0011 28.6966 35.6503V34.5808C27.9268 35.0825 27.0861 35.3504 26.3163 35.3504C24.6753 35.3504 23.5558 34.2922 23.5558 32.7681C23.5558 31.2666 24.7155 30.1613 26.276 30.1613C27.0667 30.1613 27.7867 30.3801 28.6272 30.8686" fill="black"/>
  <path fill-rule="evenodd" clip-rule="evenodd" d="M30.9039 32.7565C30.9039 31.2588 32.0345 30.161 33.5562 30.161C35.0863 30.161 36.2167 31.2588 36.2167 32.7565C36.2167 34.2448 35.0863 35.3501 33.5562 35.3501C32.0345 35.3501 30.9039 34.2448 30.9039 32.7565ZM29.8955 32.7565C29.8955 34.6013 31.3062 36.2499 33.5354 36.2499C35.8465 36.2499 37.2266 34.5937 37.2266 32.7565C37.2266 30.8571 35.8063 29.2632 33.5562 29.2632C31.3451 29.2632 29.8955 30.8684 29.8955 32.7565Z" fill="black"/>
  <path d="M45.2403 29.3479H44.3198V34.6219L39.697 29.3479H38.9159V36.1592H39.837V30.9192L44.3991 36.1592H45.2403" fill="black"/>
  <path d="M50.4766 29.7425C49.9975 29.4219 49.4769 29.2634 48.9563 29.2634C47.7057 29.2634 46.8871 29.9708 46.8871 31.0799C46.8871 32.9454 49.8391 33.1038 49.8391 34.5148C49.8391 34.892 49.4882 35.3711 48.7262 35.3711C48.0566 35.3711 47.4284 35.0203 46.9286 34.3827V35.6201C47.4963 36.0483 48.0981 36.2501 48.8375 36.2501C49.9391 36.2501 50.7483 35.4711 50.7483 34.4035C50.7483 32.2381 47.7944 32.2588 47.7944 30.9479C47.7944 30.4706 48.2471 30.1405 48.8752 30.1405C49.3373 30.1405 49.8976 30.299 50.4766 30.8498" fill="black"/>
  <path d="M57.2351 29.3479H51.5367V30.2288H53.8983V36.1592H54.8773V30.2288H57.2351" fill="black"/>
  <path fill-rule="evenodd" clip-rule="evenodd" d="M59.4555 30.187H60.0874C61.0343 30.187 61.4172 30.5794 61.4247 31.2169C61.4341 31.7866 61.1361 32.3261 60.0874 32.3261H59.4555V30.187ZM58.4746 29.3477V36.1589H59.4555V33.2032H59.8648C60.3646 33.2032 60.774 33.3635 61.6737 34.7631L62.5772 36.1589H63.7486C63.2751 35.512 63.1035 35.2799 62.8168 34.8103C62.2962 33.9614 61.9133 33.3333 61.2946 32.9259C62.0245 32.6354 62.4339 32.045 62.4339 31.2584C62.4339 30.0814 61.5775 29.3477 60.1949 29.3477" fill="black"/>
  <path d="M70.4257 29.3479H69.4411V33.3147C69.4411 33.9523 69.3637 34.4521 69.0148 34.8011C68.7016 35.1104 68.1641 35.35 67.4133 35.35C66.8248 35.35 66.3344 35.1632 65.9421 34.769C65.6327 34.4615 65.5308 34.1428 65.5308 33.3732V29.3479H64.5519V33.5844C64.5519 35.4405 65.9515 36.2497 67.3926 36.2497C69.426 36.2497 70.4257 35.1519 70.4257 33.4845" fill="black"/>
  <path d="M78.082 29.8218C77.1521 29.4332 76.4447 29.2634 75.743 29.2634C73.5719 29.2634 72.0026 30.7781 72.0026 32.8549C72.0026 34.2828 73.123 36.2501 75.6827 36.2501C76.7541 36.2501 77.4821 36.0011 78.1536 35.6503V34.5808C77.3822 35.0825 76.5447 35.3504 75.7751 35.3504C74.134 35.3504 73.0117 34.2922 73.0117 32.7681C73.0117 31.2666 74.1718 30.1613 75.7317 30.1613C76.5239 30.1613 77.2426 30.3801 78.082 30.8686" fill="black"/>
  <path d="M84.7705 29.3479H79.0721V30.2288H81.4318V36.1592H82.4108V30.2288H84.7705" fill="black"/>
  <path d="M86.4907 36.1592V29.3479" stroke="black" stroke-width="0.97795" stroke-miterlimit="10"/>
  <path fill-rule="evenodd" clip-rule="evenodd" d="M89.6993 32.7568C89.6993 31.2591 90.831 30.1613 92.3532 30.1613C93.8811 30.1613 95.0129 31.2591 95.0129 32.7568C95.0129 34.245 93.8811 35.3504 92.3532 35.3504C90.831 35.3504 89.6993 34.245 89.6993 32.7568ZM88.692 32.7568C88.692 34.6015 90.1029 36.2501 92.3325 36.2501C94.6432 36.2501 96.0239 34.594 96.0239 32.7568C96.0239 30.8573 94.6035 29.2634 92.3532 29.2634C90.1407 29.2634 88.692 30.8686 88.692 32.7568Z" fill="black"/>
  <mask id="mask0_114_2243" style="mask-type:luminance" maskUnits="userSpaceOnUse" x="1" y="1" width="115" height="38">
    <path d="M1.67712 38.6599H115.701V1.77552H1.67712V38.6599Z" fill="white"/>
  </mask>
  <g mask="url(#mask0_114_2243)">
    <path d="M104.035 29.3517H103.12V34.6229L98.5004 29.3517H97.7236V36.1626H98.6392V30.9192L103.203 36.1626H104.035" fill="black"/>
    <path fill-rule="evenodd" clip-rule="evenodd" d="M37.2994 16.798C36.9388 17.547 36.3423 18.5596 35.3851 19.5723C33.5125 21.5836 30.2388 23.6227 24.6624 23.6227C17.8793 23.6227 15.2159 21.209 13.8704 18.8231C12.9132 17.1169 12.6913 15.3552 12.8439 13.7739C13.1074 10.9163 15.8817 1.81661 27.9222 1.81661C34.6777 1.81661 37.3272 4.02224 38.3537 6.46363C39.1582 8.40565 38.853 11.4158 38.8114 11.6793H30.9046C31.1543 10.1673 30.6966 7.62886 27.9777 7.61499C24.9815 7.58725 22.1239 9.82049 21.3333 12.7335C20.4593 15.9517 22.2627 17.9354 25.1341 17.9909C28.2136 18.0464 29.7117 15.5495 29.7533 15.494H37.8265C37.7572 15.7021 37.4659 16.4373 37.2994 16.798ZM59.6603 2.4825L63.2947 23.1372H54.5695L54.3614 20.6959H45.8859L44.2629 23.1372H35.0245L50.2693 2.4825H59.6603ZM54.1672 16.465L53.5152 8.62759L48.3689 16.465H54.1672ZM63.9051 15.8824H72.0476C72.0476 15.9379 71.9644 18.8787 76.3201 18.8787C79.2886 18.8787 79.7325 17.9492 79.8296 17.5192C79.996 16.7424 79.455 16.354 78.3315 16.0905C74.7942 15.2443 69.9253 13.6769 68.6491 12.9C67.7613 12.3591 66.4297 11.1661 66.4158 8.79404C66.4019 5.63133 70.175 1.71955 78.2343 1.77504C82.2571 1.80278 84.7401 2.59349 86.2521 3.27319C89.4842 4.71583 89.72 7.78144 89.6506 9.07149L81.6883 9.0576C81.6883 9.0576 81.6606 6.74104 78.3453 6.6162C76.6668 6.54684 74.8219 6.83811 74.8358 8.14203C74.8358 9.26563 75.9594 9.51539 78.6505 10.1257C79.2747 10.2645 83.6026 11.1383 84.9759 11.6516C87.4728 12.5671 88.6657 13.871 88.2912 16.5898C87.4589 22.6378 79.5799 23.6227 75.5571 23.6366C70.5356 23.6644 65.2367 22.735 64.1131 17.7412C63.9744 17.1447 63.9051 15.8824 63.9051 15.8824ZM94.0063 2.49639H115.701L114.314 7.90624H100.581L99.8462 10.6112H112.996L111.859 15.0085H98.7088L98.0013 17.7134H111.79L110.389 23.1372H88.6796" fill="black"/>
  </g>
  <path d="M10.5676 27.0848H109.63L106.618 38.8004H1.91345" fill="black"/>
  <path d="M28.8729 29.9649C27.9436 29.5726 27.2334 29.4028 26.5328 29.4028C24.3619 29.4028 22.7916 30.9213 22.7916 32.998C22.7916 34.4241 23.9124 36.3895 26.4717 36.3895C27.5412 36.3895 28.2723 36.1406 28.9437 35.7935V34.7221C28.1724 35.2219 27.3319 35.4936 26.5619 35.4936C24.9208 35.4936 23.8015 34.4354 23.8015 32.9075C23.8015 31.4098 24.9612 30.3026 26.523 30.3026C27.3124 30.3026 28.0324 30.5233 28.8729 31.0099" fill="white"/>
  <path fill-rule="evenodd" clip-rule="evenodd" d="M31.1503 32.8981C31.1503 31.3985 32.281 30.3026 33.8013 30.3026C35.3314 30.3026 36.4619 31.3985 36.4619 32.8981C36.4619 34.3863 35.3314 35.4936 33.8013 35.4936C32.281 35.4936 31.1503 34.3863 31.1503 32.8981ZM30.1406 32.8981C30.1406 34.7428 31.5514 36.3895 33.7805 36.3895C36.0916 36.3895 37.4718 34.7334 37.4718 32.8981C37.4718 31.0005 36.0512 29.4028 33.8013 29.4028C31.5915 29.4028 30.1406 31.0099 30.1406 32.8981Z" fill="white"/>
  <path d="M45.4839 29.4932H44.5653V34.7634L39.9421 29.4932H39.1631V36.3007H40.0836V31.0588L44.6446 36.3007H45.4839" fill="white"/>
  <path d="M50.7252 29.8838C50.2423 29.5632 49.7236 29.4028 49.2049 29.4028C47.9524 29.4028 47.1338 30.114 47.1338 31.2231C47.1338 33.0867 50.082 33.247 50.082 34.6542C50.082 35.0352 49.7349 35.5143 48.9748 35.5143C48.3014 35.5143 47.6733 35.1635 47.1715 34.5259V35.7633C47.743 36.1934 48.3429 36.3895 49.0823 36.3895C50.1839 36.3895 50.9931 35.6143 50.9931 34.5467C50.9931 32.3793 48.043 32.3982 48.043 31.091C48.043 30.6119 48.4919 30.2837 49.1238 30.2837C49.5822 30.2837 50.1443 30.4422 50.7252 30.9892" fill="white"/>
  <path d="M57.4843 29.4932H51.7803V30.374H54.1438V36.3007H55.1227V30.374H57.4843" fill="white"/>
  <path fill-rule="evenodd" clip-rule="evenodd" d="M59.7003 30.3307H60.3303C61.2829 30.3307 61.662 30.723 61.6676 31.3624C61.679 31.9283 61.3791 32.4697 60.3303 32.4697H59.7003V30.3307ZM58.7213 29.4932V36.3007H59.7003V33.3468H60.1096C60.6132 33.3468 61.0225 33.5052 61.9185 34.903L62.8202 36.3007H63.9915C63.5218 35.6518 63.3521 35.4236 63.0616 34.9558C62.5391 34.107 62.1618 33.4751 61.5394 33.0657C62.2731 32.779 62.6787 32.1905 62.6787 31.3983C62.6787 30.225 61.8204 29.4932 60.4397 29.4932" fill="white"/>
  <path d="M70.6692 29.4932H69.6902V33.4581C69.6902 34.0956 69.6072 34.5955 69.2601 34.9445C68.9489 35.2538 68.4094 35.4934 67.6587 35.4934C67.0683 35.4934 66.5798 35.3047 66.1855 34.9143C65.8762 34.6049 65.7781 34.288 65.7781 33.5166V29.4932H64.7972V33.7259C64.7972 35.582 66.2006 36.3893 67.6379 36.3893C69.6694 36.3893 70.6692 35.2953 70.6692 33.6278" fill="white"/>
  <path d="M78.3273 29.9649C77.3992 29.5726 76.6881 29.4028 75.9864 29.4028C73.8172 29.4028 72.246 30.9213 72.246 32.998C72.246 34.4241 73.3683 36.3895 75.9279 36.3895C76.9975 36.3895 77.7293 36.1406 78.4008 35.7935V34.7221C77.6312 35.2219 76.79 35.4936 76.0185 35.4936C74.3793 35.4936 73.2589 34.4354 73.2589 32.9075C73.2589 31.4098 74.4171 30.3026 75.9789 30.3026C76.7692 30.3026 77.4898 30.5233 78.3273 31.0099" fill="white"/>
  <path d="M85.0178 29.4932H79.3175V30.374H81.6753V36.3007H82.6543V30.374H85.0178" fill="white"/>
  <path d="M86.7363 36.3007V29.4932" stroke="white" stroke-width="0.97795" stroke-miterlimit="10"/>
  <path fill-rule="evenodd" clip-rule="evenodd" d="M89.9484 32.8981C89.9484 31.3985 91.0783 30.3026 92.5986 30.3026C94.1265 30.3026 95.2582 31.3985 95.2582 32.8981C95.2582 34.3863 94.1265 35.4936 92.5986 35.4936C91.0783 35.4936 89.9484 34.3863 89.9484 32.8981ZM88.9374 32.8981C88.9374 34.7428 90.3483 36.3895 92.5779 36.3895C94.8904 36.3895 96.2674 34.7334 96.2674 32.8981C96.2674 31.0005 94.8489 29.4028 92.5986 29.4028C90.3898 29.4028 88.9374 31.0099 88.9374 32.8981Z" fill="white"/>
  <path d="M104.285 29.5047H103.369V34.7758L98.75 29.5047H97.9594V36.3018H98.8887V31.0722L103.439 36.3018H104.285" fill="white"/>
  <path fill-rule="evenodd" clip-rule="evenodd" d="M37.5488 16.9372C37.1882 17.7002 36.5778 18.7128 35.6345 19.7115C33.7619 21.7229 30.4882 23.762 24.9118 23.762C18.1286 23.762 15.4514 21.3483 14.1198 18.9763C13.1626 17.2562 12.9407 15.4946 13.0933 13.9132C13.3568 11.0557 16.1173 1.95598 28.1578 1.95598C34.9132 1.95598 37.5766 4.16154 38.5892 6.6168C39.4076 8.55882 39.1024 11.5689 39.0608 11.8186H31.1402C31.4037 10.3066 30.9321 7.76815 28.2271 7.75428C25.217 7.72653 22.3733 9.95986 21.5688 12.8729C20.6949 16.0911 22.512 18.0747 25.3835 18.1302C28.4629 18.1995 29.9472 15.6888 30.0027 15.6333H38.0759C38.0066 15.8552 37.7153 16.5766 37.5488 16.9372ZM59.9098 2.62179L63.5441 23.2904H54.8189L54.6108 20.8351H46.1214L44.4984 23.2765H35.2739L50.5187 2.62179H59.9098ZM54.4028 16.6043L53.7646 8.76687L48.6044 16.6043H54.4028ZM64.1406 16.0217H72.297C72.297 16.0772 72.1999 19.0318 76.5556 19.0318C79.538 19.0318 79.9818 18.1025 80.079 17.6586C80.2454 16.8818 79.7044 16.4933 78.5808 16.2298C75.0297 15.3836 70.1747 13.8161 68.8985 13.0393C67.9968 12.4983 66.6652 11.3192 66.6652 8.93332C66.6513 5.77061 70.4105 1.85884 78.4699 1.91432C82.5065 1.94207 84.9756 2.74664 86.4876 3.41247C89.7197 4.85512 89.9694 7.92073 89.8861 9.22466L81.9378 9.21077C81.9378 9.21077 81.91 6.8942 78.5947 6.75548C76.9163 6.69999 75.0575 6.97748 75.0713 8.2814C75.0852 9.405 76.1949 9.66855 78.886 10.265C79.5241 10.4176 83.8382 11.2915 85.2253 11.7909C87.7222 12.7064 88.9151 14.0103 88.5406 16.7291C87.6944 22.7771 79.8293 23.762 75.8065 23.7759C70.785 23.8036 65.4722 22.8742 64.3625 17.8805C64.2238 17.284 64.1406 16.0217 64.1406 16.0217ZM94.2557 2.63567H115.951L114.55 8.05941H100.831L100.082 10.7644H113.232L112.108 15.1616H98.9582L98.2507 17.8527H112.025L110.638 23.2765H88.929" fill="black"/>
</svg>