<svg xmlns="http://www.w3.org/2000/svg" width="112" height="34" viewBox="0 0 112 34" fill="none">
  <g clip-path="url(#clip0_114_2139)">
    <path d="M36.2366 21.0979C36.2366 13.9714 42.0158 8.18994 49.139 8.18994C56.2659 8.18994 62.0444 13.9714 62.0444 21.0979C62.0444 28.2297 56.2655 34 49.139 34C42.0158 34 36.2366 28.23 36.2366 21.0979ZM49.1286 27.0217C52.3957 27.0217 55.0409 24.3736 55.0409 21.1035C55.0409 17.8364 52.3957 15.1853 49.1286 15.1853C45.8563 15.1853 43.216 17.8364 43.216 21.1035C43.216 24.3736 45.8563 27.0217 49.1286 27.0217Z" fill="#B1B1B1"/>
    <path d="M0 0H10.7894L16.8874 20.438H16.9744L23.1709 0H33.6656V33.2892H26.7267V9.74714H26.6346L19.9795 33.2892H13.6036L7.03624 9.74714H6.94372V33.2892H0V0ZM93.7465 6.56175H100.685V0H93.7465V6.56175ZM93.7465 33.2892H100.685V8.90184H93.7465V33.2892ZM104.53 33.2892H111.468V0H104.53V33.2892ZM64.9547 33.2892H71.8902V31.129C73.6737 33.1004 75.9235 33.8536 78.5501 33.8536C85.5377 33.8536 90.8391 27.9956 90.8391 21.1444C90.8391 14.3043 85.5834 8.34562 78.5501 8.34562C76.019 8.34562 73.8186 9.13927 71.8902 10.786V0H64.9547V33.2892ZM71.975 21.1035C71.975 17.8364 74.6171 15.1853 77.8872 15.1853C81.1573 15.1853 83.8028 17.8364 83.8028 21.1035C83.8028 24.3736 81.1573 27.0217 77.8872 27.0217C74.6171 27.0217 71.975 24.3736 71.975 21.1035Z" fill="black"/>
  </g>
  <defs>
    <clipPath id="clip0_114_2139">
      <rect width="111.468" height="34" fill="white"/>
    </clipPath>
  </defs>
</svg>