<svg xmlns="http://www.w3.org/2000/svg" width="51" height="62" viewBox="0 0 51 62" fill="none">
  <g clip-path="url(#clip0_114_2172)">
    <path fill-rule="evenodd" clip-rule="evenodd" d="M48.1843 61.5888C49.228 61.5888 50.0712 60.7441 50.0712 59.7004V21.751C50.0712 20.7088 49.228 19.8625 48.1858 19.8625H1.8899C0.846224 19.8625 0 20.7088 0 21.751V59.7004C0 60.7441 0.846224 61.5888 1.8899 61.5888H48.1843Z" fill="black"/>
    <path d="M29.906 5.1589C29.906 4.9466 29.6432 4.63335 29.4324 4.52497C28.1705 3.7901 26.9056 4.73727 25.6437 4.73727C25.1686 4.73727 24.695 4.8412 24.3283 4.57842C24.3283 4.36761 24.5392 4.31416 24.5392 4.10632C24.2259 4.10632 23.8533 3.99943 23.4895 3.94746C23.4866 3.94746 22.6982 3.8955 22.2232 3.73962C20.4862 3.00326 18.8591 2.63062 16.8608 3.57928C16.2269 3.84206 15.5989 4.10632 14.913 4.10632C14.5983 4.10632 15.3881 4.73727 15.2841 5.05201C14.2301 5.21235 13.2844 5.5256 12.3892 6.36737V6.42081C13.0186 7.21211 13.9673 7.31603 14.913 7.31603C15.2292 7.31603 15.8082 8.05239 17.2794 8.26172C19.4366 8.68186 20.7 7.47191 22.2232 8.10287C22.1192 7.84158 22.1192 7.68273 22.1192 7.47191C23.9097 7.94847 25.3275 7.89354 26.6978 7.21211C27.9597 6.89292 28.5387 5.10545 29.906 5.1589Z" fill="#F5F5F5"/>
    <path d="M25.2755 13.5737C25.0959 13.3317 25.1671 12.9412 24.9667 13.1402C24.5629 13.544 24.6401 14.1556 24.6891 14.6827C24.7114 14.938 24.5124 14.9128 24.4323 14.8311C23.975 14.3976 23.8013 14.0473 23.592 13.4683C23.0664 13.6241 23.01 14.0146 22.9892 14.4392C22.9699 14.8014 23.2772 15.3611 22.9595 15.3077C22.382 15.2052 22.1193 14.2566 22.0673 13.5737C21.8594 13.5737 21.705 13.6999 21.469 14.1304C21.3116 14.4466 21.224 14.9425 20.7534 14.8875C20.2798 14.8356 20.1254 14.1675 20.0735 13.6227C20.0557 13.3391 19.7662 13.6182 19.6622 13.7251C19.4321 13.9552 19.055 14.4704 18.8056 14.8875C18.4374 14.4689 18.4374 13.8394 18.3855 13.1016L18.3335 13.0971C17.7545 13.3629 17.0716 15.2572 16.2283 15.2572C16.1229 15.2572 16.0873 15.1518 16.1229 15.0998C16.5238 14.506 16.5 13.8335 16.4481 13.0971C16.4332 12.8566 16.3159 12.4365 16.1467 12.6042C16.1467 12.6042 15.4564 13.3807 15.1758 13.6241C14.9234 13.8454 14.4394 14.2566 13.9688 14.3605C13.9688 13.9418 14.8091 12.9412 14.3355 11.3661C13.9688 11.7847 13.8099 12.1262 12.7098 12.4439C12.1777 12.5854 11.6124 12.5295 11.1183 12.2865C11.0812 12.7557 10.9714 13.3421 10.5497 13.7399C10.5497 13.7399 9.09632 12.9917 8.67617 13.0451C8.30651 13.0971 7.76314 14.5743 7.4974 15.4665C6.86941 15.4888 6.08257 14.8861 5.95193 14.2373C5.44865 15.5675 5.48576 17.1768 5.78565 18.7579C6.56952 22.8881 7.96356 25.6197 8.75486 30.3452C9.05623 32.1683 7.0728 33.3768 6.33495 34.8762C7.17672 34.8762 7.90863 34.9178 8.85433 34.8822C9.08889 34.8703 9.4452 34.6164 9.512 34.324C9.71539 33.448 9.75993 32.4014 10.0762 31.5077C10.9669 31.3503 11.2297 30.2962 12.021 29.8256C12.0759 29.5079 11.6008 29.4545 11.5459 29.0878C11.8102 28.8265 12.1798 28.5073 12.4411 28.1406C12.5465 27.8244 12.0195 27.7694 12.0195 27.5096C12.0195 27.2498 12.113 27.1311 12.2214 26.9722C12.4292 26.6723 12.9741 26.6308 12.7039 26.221C12.4515 25.835 11.9675 25.985 11.7048 25.6687C11.8621 25.1417 12.3372 24.5107 12.8108 24.3029C12.4411 23.8278 11.8102 23.6155 11.2297 23.6675V22.5674C11.2297 22.4204 11.3885 22.5154 11.3885 22.5154C12.1234 22.8821 12.6519 23.1419 13.3898 23.4611C13.3334 24.0921 13.5457 24.6711 13.6511 25.2486C13.755 26.1408 14.3548 26.7109 14.2316 27.7175C14.1469 28.3856 13.4462 28.6899 13.0275 29.0269C12.8509 29.1694 12.5465 29.2986 12.5465 29.6148C13.0186 30.2443 13.7995 30.7416 14.3785 31.2672C14.815 30.7342 15.0184 29.8746 15.3866 29.2986C15.7548 29.1947 16.071 29.1427 16.3338 28.9838C16.5446 28.8784 16.7554 28.8784 16.9632 28.773C16.8073 28.2475 16.2803 27.9847 15.9151 27.6685C16.1229 27.4577 16.4481 27.4695 16.7554 27.4057C16.9261 27.3656 17.1236 27.3018 17.229 27.088C16.8593 26.9796 16.4377 26.7198 16.3842 26.2967C16.8073 25.9849 17.4917 25.6182 17.6506 24.9309C17.4383 24.6711 17.0716 24.6711 16.8073 24.5122C16.7554 24.1426 16.9038 23.7194 16.984 23.3928C17.0241 23.2206 17.1488 23.0454 17.3047 23.0454C18.4107 23.2533 19.5761 23.1939 20.6272 23.041C20.6272 23.041 21.083 22.946 21.0028 23.3602C20.6881 24.726 20.2264 25.9849 20.0156 27.4057C19.5435 27.9847 18.9125 28.2475 18.4374 28.6647C18.0707 28.9838 17.5957 29.0343 17.4383 29.5614L19.545 31.2597C19.9235 30.8129 20.2798 30.0349 20.5426 29.5079C20.6465 29.2986 20.5426 28.9838 20.7534 28.773C21.224 28.8265 21.6991 28.6647 22.1193 28.6157C22.1727 28.1406 21.7526 27.9298 21.5417 27.5616C21.9114 27.4577 22.382 27.5468 22.6997 27.3582C22.9002 27.238 23.1733 26.9796 23.1733 26.7198H22.8022C22.6997 26.7198 22.5394 26.7198 22.5943 26.5639C23.2223 26.4051 23.9097 26.2967 24.3283 25.7222C24.2746 25.723 24.2217 25.7089 24.1756 25.6813C24.1294 25.6538 24.0918 25.614 24.0671 25.5663C24.1101 25.4193 24.3283 25.354 24.3283 25.354C24.7485 25.1951 25.1196 24.7216 25.1196 24.3029C24.7485 24.3029 24.2764 24.1945 24.171 23.8278C24.3833 23.4611 24.8034 23.2459 25.225 23.1939C25.8026 24.5122 26.5909 25.7222 27.4816 26.8787C27.5351 26.9796 27.59 27.1415 27.5351 27.3018L25.5368 29.7187C25.4329 29.8256 25.4329 30.0349 25.5903 30.0349L28.4318 29.931C28.6337 29.9043 28.8014 29.8256 28.8519 29.6668C28.9054 28.8784 28.9054 28.0886 29.0093 27.3018C29.4324 26.9796 29.7471 26.2967 30.3261 26.2967C30.2712 25.9849 29.9594 25.9315 29.7471 25.7222C29.6937 25.2991 30.0619 25.0868 30.2712 24.775C30.0099 24.6176 29.6417 24.9858 29.379 24.827C29.6417 24.6176 29.8511 24.5122 30.0619 24.0386C30.1153 23.9095 30.0099 23.9347 30.0099 23.9347C29.7471 24.0386 29.517 23.9585 29.327 23.8827C29.0761 23.761 28.8519 23.565 28.8519 23.3023C29.0093 22.7767 29.4383 22.3625 29.805 21.9943C29.9535 21.8563 30.1034 21.7939 30.1732 21.9498C30.3336 22.3744 30.4286 22.7248 30.6928 23.0929C30.7463 23.3542 30.7463 23.6675 30.9022 23.8827C31.5851 24.3029 32.2175 24.8774 32.795 25.6183C33.0578 26.0918 33.4809 26.4585 33.3755 27.0346L31.6905 29.5614C31.6207 29.6668 31.6504 29.7885 31.6504 29.7885C31.6682 29.8672 31.7647 30.0008 31.8805 29.9741L34.532 29.3505L34.6641 29.2867L34.6938 29.1961L34.5855 27.2469C34.8497 26.9321 35.2699 26.7703 35.5846 26.4585C35.4807 26.2967 35.3768 26.2477 35.2699 26.1408C35.2699 25.8246 35.5846 25.7222 35.7954 25.5663C35.6885 25.2486 35.2179 25.2991 35.111 24.9309C35.5326 24.6711 35.8489 24.3029 35.9008 23.7759C35.7449 23.6675 35.3871 23.7655 35.1778 23.7729C34.9774 23.7788 34.146 23.6794 33.8847 23.4062C33.6843 23.1969 33.6398 22.7248 33.5878 22.3031C33.5878 22.3031 33.5923 22.1665 33.6932 22.1977C35.6885 22.8287 37.7447 23.3542 39.7934 23.7254C39.7934 23.7254 40.0681 23.7684 40.1616 23.9347C41.0034 25.4089 41.8452 26.748 42.7493 28.194C42.9601 28.534 43.1086 28.8458 43.1828 29.1368C42.7107 29.9815 41.9803 30.5204 41.2974 31.3132C41.0361 31.6665 41.3745 31.9605 41.5794 31.9278L44.1062 31.5077C44.1062 31.5077 44.2814 31.4899 44.3185 31.2924C44.3735 30.6674 44.5783 30.0884 44.4744 29.4559C44.6852 29.0878 45.2093 29.0878 45.4245 28.7196C45.1984 28.4298 44.9135 28.191 44.5887 28.0189C43.9533 27.6729 43.8108 26.9796 43.6757 26.5461C43.3342 25.4653 44.3185 25.7756 44.3185 25.0868C44.1169 24.8363 43.8878 24.6092 43.6356 24.4098C43.6356 24.0386 43.9503 23.9347 44.2651 23.8293C44.2349 23.7379 44.1869 23.6533 44.124 23.5805C44.0611 23.5076 43.9844 23.4479 43.8984 23.4047C43.6861 23.3008 43.3728 23.2459 43.159 23.0929C43.0551 22.8302 43.9503 22.6208 43.842 21.831C43.5807 21.9884 43.159 21.8845 42.8978 21.7791C42.5801 21.5148 43.1056 21.252 42.9497 20.9922C42.3129 20.7635 41.697 20.4804 41.1088 20.146C40.6991 19.9263 40.509 19.2775 40.3205 18.8321C39.5812 16.9912 39.0036 15.1503 37.6898 13.5737C37.375 13.207 37.2696 13.1506 36.848 12.8358C36.7129 12.7319 36.7649 12.5048 37.0484 12.2746C37.3112 12.0653 37.5814 11.7313 37.6898 11.4685C38.2688 10.3105 38.2138 8.62846 37.5814 7.52391C36.848 6.15511 35.7954 5.683 34.532 5.683C32.5887 5.683 31.3253 7.26114 30.6424 8.89271C29.7991 10.9415 30.0619 11.9584 28.6975 12.9561C28.5007 13.067 28.2712 13.1053 28.049 13.0643C27.8268 13.0233 27.626 12.9057 27.4816 12.7319C27.2738 12.4706 27.011 12.0475 27.1684 11.6793C27.3272 11.7847 27.4876 12.0668 27.6835 12.2078C27.8958 12.3667 28.1735 12.3711 28.3813 12.2583C28.6634 12.1009 28.8044 11.7877 28.8044 11.4715C28.8044 11.087 28.5921 10.7529 28.3293 10.5213C27.9062 10.1561 27.2203 10.2081 26.7468 10.4708C26.1173 10.7856 25.7491 11.4685 25.8545 12.2583C25.9065 12.7853 26.1989 13.1506 26.4112 13.6761C26.4691 13.8216 26.4068 13.973 26.1692 13.9953C25.8026 14.022 25.5264 13.9032 25.2755 13.5737ZM11.1792 5.52564L12.6 4.73731C12.8628 4.78927 12.8628 5.05056 13.0186 5.21238C13.3898 5.10401 13.2295 4.57697 13.4417 4.3142C13.6511 4.3142 13.6511 4.6319 13.8084 4.78927C14.1766 4.78927 14.0697 4.21176 14.2316 3.94899C14.4394 3.63277 15.0184 3.73817 14.9145 3.21114L14.3874 0.843197C14.3251 0.564092 14.1722 0.433447 14.0697 0.476501C12.1798 1.15942 10.7041 1.84382 8.91519 2.47329C8.75931 2.52674 8.60194 2.52674 8.33768 2.52674L5.44568 0.371094C5.60453 1.63301 5.7619 2.791 5.8673 3.52884C5.91927 3.68473 5.8673 3.73817 5.7619 3.73817C5.1829 3.73817 4.65735 4.21176 4.29066 4.73731C3.86903 5.63104 3.34348 6.36889 2.50171 6.73559C2.65908 7.10525 2.97233 7.31458 3.29003 7.41702C3.55281 7.52391 3.81707 7.47047 4.07984 7.62783C4.07984 7.73472 4.0264 7.78965 3.97295 7.89209C3.29003 9.10204 4.34262 10.7336 3.02874 11.6274C3.60774 11.8886 4.29066 11.6274 4.76276 11.1018L4.86668 11.1538C4.50098 12.0174 4.33943 12.9537 4.39458 13.8899C4.39458 13.8899 4.43466 14.1081 4.34262 14.3813C4.34262 14.3813 4.24315 14.6856 4.18376 14.8356C5.87324 14.5594 6.50717 12.3979 6.63633 12.0267L6.69571 11.9777L6.71056 12.0475C6.71056 12.0475 6.22212 13.6301 6.71056 14.3085C6.81893 14.4615 7.00748 14.6129 7.19305 14.5951C7.39051 13.8394 7.81362 12.8878 8.49654 12.3637C9.12749 12.4142 9.76142 12.7319 10.3924 12.9932C10.7606 12.1009 10.0762 10.839 10.0762 10.839L10.0821 10.8123L10.1281 10.839C10.1281 10.839 10.6537 11.4136 10.9194 11.6274C11.2312 11.8367 12.1813 12.0475 12.7054 11.7313C12.891 11.6214 13.1805 11.3661 13.2309 11.1538C11.5474 11.2607 11.4405 9.15549 10.6537 8.15487L10.7056 8.10142C11.1287 8.31372 11.3396 8.89272 11.7582 9.10204L14.0564 9.57712C14.2123 9.60829 14.2716 9.36482 14.2716 9.36482C14.2924 9.29059 14.5062 8.45624 14.3904 8.05094C14.1276 7.89209 14.0222 8.31372 13.8114 8.31372C13.2324 8.15487 12.8642 8.10142 12.2333 7.83865L11.1807 5.73496C11.102 5.57611 11.1807 5.52564 11.1807 5.52564M29.6803 13.5336L29.7486 13.4683C30.9586 12.2063 31.6415 10.1027 32.1656 9.10204C32.7965 7.94702 33.429 7.41702 34.3761 7.36654C35.1659 7.31458 36.217 7.9975 36.5333 8.78879C36.8495 9.47171 36.6402 10.3625 36.2705 10.8925C35.8503 11.5219 35.062 11.6793 34.3761 11.5219C33.956 11.4136 33.5893 11.1538 33.2731 10.839C32.7965 11.5754 32.1656 12.4142 31.4307 12.8878C30.9036 13.2589 30.2727 13.6241 29.6952 13.6241L29.6803 13.5336ZM10.3389 4.15683C10.3423 4.24091 10.3282 4.32477 10.2975 4.40312C10.2668 4.48147 10.2202 4.55261 10.1606 4.61204C10.1011 4.67147 10.0298 4.7179 9.95139 4.74841C9.87297 4.77891 9.78907 4.79283 9.705 4.78927C9.38878 4.78927 9.12601 4.52501 9.12601 4.15683C9.12601 3.79013 9.38878 3.52884 9.705 3.52884C10.0762 3.52884 10.3389 3.79013 10.3389 4.15683ZM6.8902 54.1954C6.95997 50.2255 9.2522 47.2326 12.9696 47.2326C15.7102 47.2326 17.4116 48.6771 17.7738 51.149C18.05 53.0404 17.7159 54.1939 15.5261 54.1865L7.83143 54.5487C7.99771 59.8532 11.4583 61.6288 15.6969 61.5872H18.384L18.3647 60.3698H15.7607C11.8503 60.2511 9.65007 58.5809 9.52388 55.5968L16.6604 55.2242C18.1687 55.1648 19.2644 54.4789 19.2658 52.5742C19.2703 49.1908 17.4101 45.9974 13.0068 46.0019C8.982 46.0063 5.51545 48.8775 5.51545 54.2562C5.51545 57.2789 6.49826 60.021 8.53217 61.5872H10.8778C8.30354 60.4485 6.82339 57.895 6.8902 54.1954ZM24.3551 50.6976V61.5887H25.9807V51.238C26.864 50.184 28.4466 49.3823 29.6595 49.3823C31.107 49.3823 31.8241 49.9212 31.83 51.728L31.8389 61.5887H33.4022V51.5246C33.4022 49.3496 32.3868 48.0699 29.7813 48.0699C28.2269 48.0699 26.5374 48.9042 24.3551 50.6976Z" fill="#F5F5F5"/>
    <path d="M23.405 50.2524C25.5725 48.3863 27.7519 47.2001 29.9936 47.2001C32.8337 47.2001 34.4103 48.609 34.3554 51.5262V61.5874H35.9098V51.5158C35.9989 48.272 34.3465 46.0273 30.2727 46.0273C27.8172 46.0273 24.8079 47.2075 21.8476 49.865L21.8506 61.5874H23.405V50.2524ZM41.2143 47.88L42.2475 47.6395V61.5889H43.7336L43.7188 46.4979C43.7188 46.0555 43.4634 45.8372 42.9542 45.9768L39.7237 46.8601L39.7208 61.5874H41.2143V47.88ZM41.7279 42.5266C42.2821 42.5266 42.8136 42.3064 43.2055 41.9145C43.5974 41.5227 43.8175 40.9912 43.8175 40.437C43.8175 39.8828 43.5974 39.3513 43.2055 38.9594C42.8136 38.5676 42.2821 38.3474 41.7279 38.3474C41.1737 38.3474 40.6423 38.5676 40.2504 38.9594C39.8585 39.3513 39.6384 39.8828 39.6384 40.437C39.6384 40.9912 39.8585 41.5227 40.2504 41.9145C40.6423 42.3064 41.1737 42.5266 41.7279 42.5266ZM16.8356 51.2857C16.5357 49.2295 15.25 48.0641 12.9682 48.0641C10.1623 48.0641 8.25757 50.291 7.89087 53.716L15.3198 53.3582C16.745 53.2899 17.0583 52.8178 16.8356 51.2857ZM15.5054 51.406C15.498 51.8306 15.2723 52.1824 14.4573 52.2225L9.60262 52.4764C9.75108 50.8493 10.9595 49.381 12.8183 49.381C14.8863 49.381 15.4876 50.5746 15.5054 51.406Z" fill="#F5F5F5"/>
  </g>
  <defs>
    <clipPath id="clip0_114_2172">
      <rect width="50.0712" height="62" fill="white"/>
    </clipPath>
  </defs>
</svg>