<svg xmlns="http://www.w3.org/2000/svg" width="143" height="33" viewBox="0 0 143 33" fill="none">
  <path d="M0 2.7832H143V31.3852H0V2.7832Z" fill="white"/>
  <path d="M0.851318 3.63403H142.15V30.5346H0.851318V3.63403Z" fill="black"/>
  <path d="M19.0675 3.63403H0.851318V30.5346H9.2873L19.0675 3.63403Z" fill="black"/>
  <path d="M111.489 26.2024H13.0948L12.3053 28.3735H110.689L111.489 26.2024Z" fill="black"/>
  <path d="M70.9895 13.2605C68.4407 13.7811 64.9901 15.6426 65.0275 19.0694C65.0479 21.0397 67.4266 22.132 70.1558 22.0572C71.2198 22.0205 72.2798 21.9067 73.3274 21.7169L74.3483 19.0864C73.0075 19.2974 71.7246 19.6206 70.7105 19.2157C68.8899 18.4874 70.0129 16.5954 71.2958 16.0067C72.0043 15.6738 72.7795 15.5074 73.5622 15.52C73.9467 15.52 74.886 15.5439 75.2637 16.3742L76.5364 13.3115C74.7184 12.9057 72.8352 12.8883 71.01 13.2605M84.8124 13.1822L83.652 16.3095H81.5388L82.689 13.1822H78.6565L75.4679 21.8632H79.463L80.5553 18.923H82.6924L81.6034 21.8632H85.6053L88.8075 13.1822H84.8124ZM60.9542 13.1822L57.7554 21.8632H61.9342L65.1296 13.1822H60.9542ZM52.593 13.1822L49.5304 17.8443C49.5304 17.8443 49.7243 15.4043 49.7754 14.819C49.8094 14.3732 49.7584 13.1822 48.666 13.1822H43.7657L40.5703 21.8632H44.3816L46.6957 15.5847L46.209 21.8632H49.612L53.7637 15.6936L51.4973 21.8632H55.3324L58.5278 13.1822H52.593ZM126.778 13.1822L124.586 19.1408C124.617 18.5419 124.736 16.17 124.811 14.8054C124.841 14.5794 124.825 14.3495 124.763 14.13C124.701 13.9106 124.594 13.7061 124.45 13.5293C124.246 13.3245 123.973 13.2031 123.685 13.189H118.764L115.572 21.87H119.118L121.398 15.714L121.146 21.8632H127.094L130.29 13.1822H126.778ZM112.091 13.1822L108.895 21.8632H113.101L116.297 13.1822H112.091ZM94.3102 15.4554H99.105L99.9489 13.1822H91.1624L87.967 21.8632H96.8318L97.6927 19.522H92.7992L93.1566 18.5555H97.7234L98.506 16.4184H93.9426L94.3102 15.4554ZM106.367 13.1822H102.283L99.0845 21.8632H107.299L108.361 18.9775H104.243L106.367 13.1822Z" fill="white"/>
  <path d="M8.58534 10.1061V10.1299L8.64999 10.2831C8.90809 10.9137 9.2012 11.5295 9.52796 12.1275C9.70949 12.4631 9.92379 12.78 10.1677 13.0735C9.93317 13.4105 9.76247 13.7877 9.66408 14.1863C9.54713 14.7954 9.59891 15.425 9.81381 16.0069C9.90092 16.2676 10.015 16.5185 10.1541 16.7555C10.1521 16.777 10.1521 16.7987 10.1541 16.8202C10.0739 17.4519 10.1656 18.0935 10.4195 18.6774C10.6735 19.2614 11.0802 19.766 11.597 20.1381C11.7643 20.2659 11.9418 20.3797 12.1278 20.4784C12.3067 20.9916 12.6335 21.4403 13.0671 21.7681C13.3844 22.0159 13.7394 22.2112 14.1186 22.3466C14.5588 22.9401 15.1915 23.3624 15.9085 23.5411C16.1005 23.5948 16.2961 23.6346 16.4939 23.6602L16.5245 23.6942C16.9235 24.0697 17.4083 24.3419 17.9367 24.4871C17.8505 25.0581 17.9018 25.6414 18.0865 26.1886H38.9161C38.9193 25.4948 38.7296 24.8139 38.3682 24.2217L38.3342 24.1774C38.4713 23.1764 38.2207 22.1607 37.6337 21.3384C37.0466 20.516 36.1675 19.949 35.1762 19.7535C35.0707 19.7331 34.9618 19.7161 34.8563 19.7059H34.8121C34.0632 18.9811 33.1893 18.3977 32.2326 17.984L32.2701 17.8241H32.3143C33.4441 17.334 34.1145 16.5003 34.2574 15.4147C34.3651 14.5443 34.1482 13.6648 33.6483 12.9442C33.649 12.9328 33.649 12.9215 33.6483 12.9102C33.7857 11.8778 33.604 10.8281 33.1276 9.90192C32.7684 9.23711 32.2087 8.70246 31.5282 8.37398C31.3445 7.75124 30.5516 7.27482 29.7008 7.29864C29.0202 7.31565 28.3022 7.63894 28.0266 8.14598C27.2291 8.43283 26.5238 8.92937 25.9848 9.58334C25.4458 10.2373 25.0931 11.0245 24.9639 11.862C24.599 12.1295 24.2952 12.4714 24.0725 12.8651C23.8498 13.2589 23.7133 13.6954 23.6721 14.1459C23.6309 14.5964 23.686 15.0505 23.8336 15.4781C23.9812 15.9057 24.218 16.2971 24.5283 16.6262C23.5418 16.6328 22.5582 16.7354 21.5915 16.9325H21.5541C21.0865 16.5967 20.5521 16.3655 19.9873 16.2545C19.4224 16.1435 18.8403 16.1554 18.2804 16.2893C18.2373 16.3006 18.1969 16.3203 18.1613 16.3472C17.8332 16.2505 17.4973 16.1821 17.1574 16.143H17.0894C16.9345 15.63 16.6565 15.1626 16.2795 14.7818L16.2182 14.7273C16.1621 14.4134 16.0871 14.1032 15.9936 13.7983C15.8586 13.3162 15.5951 12.8798 15.2314 12.5358C14.9807 12.2869 14.6881 12.0841 14.367 11.9369C14.402 11.8426 14.4305 11.7459 14.4521 11.6476C14.4536 11.6227 14.4536 11.5977 14.4521 11.5728C14.4521 11.5728 14.5746 10.4022 14.7107 9.71135V9.68753C15.0884 7.32586 15.0918 7.30544 15.0952 7.26801C15.1032 7.1619 15.0888 7.0553 15.053 6.95508C15.0173 6.85486 14.961 6.76324 14.8877 6.6861C14.7894 6.58486 14.6713 6.50507 14.5407 6.45177C14.4101 6.39847 14.2698 6.37282 14.1288 6.37643C13.9222 6.37958 13.7199 6.43567 13.5411 6.53934C13.3624 6.64301 13.2132 6.79079 13.1079 6.96855C12.9755 7.19104 12.8703 7.4287 12.7948 7.67637C12.4069 6.90389 11.91 5.90001 11.5255 5.16497L11.5051 5.12754C11.4179 4.98524 11.2959 4.86747 11.1507 4.78532C11.0054 4.70316 10.8416 4.65932 10.6748 4.65793C10.5503 4.65822 10.4269 4.68129 10.3106 4.72599C10.1338 4.57044 9.9064 4.48456 9.67089 4.48438C9.55498 4.48716 9.44019 4.50782 9.33059 4.54563C9.12831 4.60912 8.95264 4.73758 8.83081 4.91108C8.70899 5.08459 8.64782 5.29345 8.6568 5.50527C8.50218 5.55958 8.36454 5.65355 8.25764 5.77777C8.15074 5.90199 8.07833 6.0521 8.04767 6.21309C8.01856 6.38523 8.02668 6.56161 8.07149 6.73034C8.07149 6.73034 8.07149 6.76437 8.0885 6.7984L8.05788 6.84264C7.82647 7.20676 7.71758 7.86353 8.58194 10.0959" fill="#D9D9D9"/>
  <path d="M38.2461 26.2025H37.4328C37.7009 25.8841 37.9179 25.5259 38.0759 25.1408C38.1991 25.481 38.2601 25.8406 38.2563 26.2025M24.6852 17.2867C24.8504 17.2981 25.0138 17.3289 25.1718 17.3786C25.4781 17.4943 26.0872 18.0796 26.4173 18.1306C26.4752 18.1306 26.6249 18.1 26.4615 17.9843C26.4173 17.9503 26.0328 17.6134 26.1757 17.4364C26.1953 17.4062 26.224 17.383 26.2576 17.3702C26.2913 17.3574 26.3281 17.3555 26.3629 17.3649C26.8393 17.484 27.2408 17.5521 27.3838 17.5725H27.5641C27.5641 17.5725 27.5641 17.5215 27.479 17.4943C26.7206 17.3095 26.0014 16.9902 25.3556 16.5516C24.9825 16.2738 24.6889 15.9028 24.5044 15.4757C24.3198 15.0487 24.2507 14.5806 24.3041 14.1185C24.3489 13.7832 24.4597 13.4602 24.6303 13.1681C24.8009 12.8761 25.0277 12.6208 25.2977 12.417C25.5096 12.2811 25.7384 12.1735 25.9783 12.0971C26.2472 12.0018 25.8082 11.9304 25.7741 11.9236C25.6618 11.9066 25.655 11.7909 25.7469 11.437C25.923 10.8122 26.2506 10.2407 26.7006 9.77289C27.1505 9.30512 27.709 8.95562 28.3264 8.75541C28.5153 8.68151 28.7085 8.61901 28.9049 8.56824C29.1635 8.52741 29.0682 8.41171 28.7722 8.37768C28.7722 8.37768 28.6735 8.37767 28.7211 8.30621C28.7638 8.25668 28.813 8.21317 28.8675 8.1769C29.1244 8.02159 29.418 7.93706 29.7182 7.93188C30.3205 7.93188 30.8412 8.25176 30.9024 8.56144C30.9024 8.56144 30.9229 8.62269 30.8514 8.62609C30.7799 8.6295 30.6438 8.67714 30.8003 8.75541C30.8378 8.77242 30.9977 8.82347 31.2257 8.92896L31.2597 8.94597C31.7157 9.15696 33.128 10.0179 33.0259 12.451V12.6688C33.0259 12.6688 33.0259 12.8015 33.0055 12.8696C32.8728 12.8696 32.8149 12.9104 32.9102 13.0057C33.0372 13.1398 33.1511 13.2856 33.2505 13.4413C33.5822 14.0031 33.7197 14.6584 33.6418 15.3061C33.591 15.663 33.457 16.0028 33.2508 16.2984C33.0445 16.5939 32.7716 16.8369 32.4542 17.0076C31.9852 17.2659 31.4823 17.4572 30.9603 17.5759C30.8174 17.6066 30.8854 17.7937 31.5422 17.7835C31.5966 17.7835 31.7191 17.7835 31.7532 17.8618C31.8314 18.0047 31.6987 18.2803 31.4129 18.4505C31.127 18.6206 31.3618 18.6274 31.7055 18.522C31.8434 18.5339 31.9781 18.5696 32.1037 18.6274C33.2898 19.1591 34.3248 19.9778 35.1153 21.0095C35.8436 22.0577 36.109 22.8812 35.881 23.3916C35.7883 23.5515 35.6605 23.6882 35.5072 23.7913C35.354 23.8945 35.1792 23.9615 34.9962 23.9871C32.4508 24.3819 28.0337 23.6843 24.9881 22.7893C24.2933 22.5803 23.6115 22.3303 22.9463 22.0406C23.2775 21.2972 23.3894 20.4747 23.2688 19.6699C23.1482 18.865 22.8002 18.1114 22.2657 17.4977L22.2214 17.45C23.051 17.3091 23.8914 17.2408 24.7328 17.2458" fill="white"/>
  <path d="M37.1435 21.8193C37.5916 22.4874 37.7792 23.2966 37.6707 24.0937C37.5622 24.8908 37.1651 25.6205 36.5548 26.1445C36.6013 25.4805 36.4121 24.8214 36.0205 24.2831C36.2148 24.1308 36.369 23.9334 36.4697 23.708C36.81 22.9559 36.5276 21.9282 35.6394 20.6453L35.5815 20.5704C36.2206 20.8119 36.768 21.2475 37.1469 21.8159M21.7178 17.9842C22.2127 18.5454 22.5179 19.2485 22.5899 19.9933C22.662 20.7381 22.4974 21.4866 22.1194 22.1324C21.2516 23.5412 19.6794 24.2423 18.2195 23.8815C18.0142 23.8293 17.8146 23.7563 17.624 23.6638C18.4516 23.5392 19.2106 23.1324 19.7725 22.5122C20.3344 21.892 20.6646 21.0966 20.7071 20.2608C20.8133 19.2784 20.5353 18.2931 19.9312 17.5112C19.7252 17.2492 19.4808 17.0197 19.2064 16.8306C19.6816 16.8364 20.1505 16.9407 20.5833 17.1369C21.0162 17.3332 21.4036 17.617 21.7212 17.9706" fill="white"/>
  <path d="M19.3968 17.9334C19.892 18.5777 20.1188 19.3886 20.0297 20.1964C19.9817 20.8168 19.748 21.4083 19.3589 21.8939C18.9698 22.3795 18.4434 22.7367 17.8484 22.9187C17.4156 23.0364 16.963 23.0618 16.5197 22.9932C16.0765 22.9246 15.6527 22.7636 15.2758 22.5206C16.0038 22.4959 16.7068 22.2488 17.2903 21.8126C17.8737 21.3764 18.3096 20.772 18.5392 20.0807C18.7699 19.3634 18.7544 18.5897 18.495 17.8823C18.376 17.5628 18.2072 17.2642 17.9947 16.9976C18.5468 17.1587 19.0362 17.4854 19.3968 17.9334Z" fill="white"/>
  <path d="M17.1678 17.974C17.2181 17.707 17.2409 17.4357 17.2358 17.1641C17.5894 17.5108 17.8389 17.9495 17.9561 18.4306C18.0734 18.9116 18.0538 19.4159 17.8994 19.8864C17.6876 20.5436 17.2436 21.101 16.6504 21.4543C16.0571 21.8076 15.3555 21.9326 14.6768 21.8057C14.0387 21.6637 13.4663 21.3128 13.0502 20.8087C13.2917 20.8609 13.5381 20.8871 13.7852 20.8869C14.2537 20.8858 14.717 20.7885 15.1464 20.6011C15.6691 20.3608 16.1253 19.9966 16.4752 19.5399C16.8251 19.0832 17.0582 18.548 17.1542 17.9808" fill="white"/>
  <path d="M16.1679 15.7417C16.5352 16.3786 16.6563 17.128 16.5082 17.8481C16.4352 18.3336 16.2351 18.7912 15.9281 19.1744C15.6212 19.5576 15.2184 19.8528 14.7606 20.0301C14.3027 20.2073 13.8061 20.2603 13.3212 20.1837C12.8362 20.1071 12.3802 19.9036 11.9993 19.5939C11.6693 19.3551 11.3927 19.0502 11.1871 18.6987C10.9814 18.3472 10.8513 17.9567 10.8048 17.5521C10.8721 17.6124 10.9426 17.6692 11.0158 17.7222C11.5604 18.1082 12.2132 18.3119 12.8806 18.3041C13.1792 18.3059 13.4767 18.2682 13.7654 18.1918C14.2131 18.0832 14.6327 17.8813 14.9969 17.5992C15.3611 17.3171 15.6616 16.9613 15.8787 16.555C16.0089 16.3023 16.105 16.0334 16.1645 15.7553" fill="white"/>
  <path d="M8.63291 7.18641L8.66013 7.16599C8.68367 7.1445 8.71151 7.12825 8.74181 7.11835H8.90855C9.02394 7.18497 9.11985 7.28066 9.18672 7.3959C9.2536 7.51114 9.2891 7.64189 9.28969 7.77512C9.36473 8.36387 9.57179 8.92806 9.89542 9.42557C9.90896 9.44452 9.92683 9.45997 9.94755 9.47062C9.96826 9.48128 9.99122 9.48683 10.0145 9.48682C10.045 9.48684 10.0748 9.47732 10.0996 9.4596C10.1152 9.44843 10.1285 9.43429 10.1387 9.41798C10.1489 9.40167 10.1558 9.38352 10.1589 9.36456C10.1621 9.3456 10.1615 9.3262 10.1571 9.30747C10.1528 9.28875 10.1448 9.27106 10.1336 9.25542C9.83836 8.79571 9.6489 8.27615 9.57894 7.73429C9.57136 7.55312 9.51567 7.37723 9.41758 7.22472C9.3195 7.07221 9.18256 6.94857 9.02085 6.86653C8.95002 6.84098 8.87489 6.82942 8.79966 6.8325C8.76585 6.75981 8.73741 6.68475 8.71458 6.6079C8.68396 6.48199 8.62951 6.23698 8.90515 6.14169H8.98342C9.18419 6.11787 9.44622 6.20975 9.71166 7.16259C9.91517 7.76175 10.1966 8.33154 10.5488 8.85727C10.5578 8.8762 10.5707 8.89297 10.5868 8.90645C10.6028 8.91993 10.6216 8.92982 10.6418 8.93543C10.6619 8.94104 10.6831 8.94225 10.7038 8.93898C10.7245 8.93571 10.7442 8.92803 10.7617 8.91646C10.7792 8.9049 10.794 8.88971 10.8051 8.87194C10.8162 8.85416 10.8233 8.83421 10.826 8.81344C10.8288 8.79266 10.827 8.77154 10.8208 8.75151C10.8147 8.73148 10.8043 8.71301 10.7904 8.69733C10.4594 8.1801 10.1974 7.62182 10.0111 7.03668C9.93293 6.63565 9.74436 6.26441 9.46664 5.96474C9.42921 5.86605 9.38497 5.75375 9.37136 5.71972C9.32372 5.5802 9.27607 5.27393 9.54151 5.18546C9.58345 5.17265 9.62697 5.16577 9.67082 5.16504C9.75779 5.17292 9.84018 5.2076 9.90662 5.26428C9.97305 5.32096 10.0203 5.39687 10.0417 5.48152L10.069 5.54277L11.2634 8.39787C11.2706 8.41822 11.2836 8.43598 11.3008 8.44891C11.3241 8.46664 11.3525 8.47639 11.3817 8.47673C11.411 8.47706 11.4396 8.46796 11.4633 8.45078C11.4869 8.43359 11.5045 8.40924 11.5132 8.38132C11.5219 8.3534 11.5215 8.3234 11.5118 8.29578L10.3514 5.50534C10.3765 5.44457 10.424 5.39581 10.4841 5.36922C10.5427 5.33738 10.608 5.31989 10.6747 5.31817C10.7267 5.32091 10.7773 5.33552 10.8227 5.36089C10.8681 5.38626 10.9071 5.4217 10.9367 5.4645C10.9367 5.4645 12.4817 8.49656 12.7743 9.01721C12.6874 9.15704 12.6123 9.30388 12.5497 9.4562C12.5293 9.53447 12.5804 9.60252 12.6178 9.53106C12.7149 9.39497 12.8194 9.26432 12.9309 9.13972C13.0023 9.01041 13.2303 8.40808 13.3188 8.21751C13.3873 7.90506 13.502 7.60457 13.6591 7.32593C13.7071 7.24146 13.7763 7.17098 13.8598 7.12144C13.9434 7.0719 14.0384 7.04503 14.1355 7.04348C14.3091 7.04348 14.452 7.13196 14.4418 7.22384C14.4316 7.31572 14.0641 9.60593 14.0641 9.60593C13.9654 10.096 13.8769 10.797 13.8327 11.2019C13.8287 11.3013 13.8173 11.4003 13.7986 11.498V11.5865C13.7493 11.8037 13.6763 12.0148 13.5808 12.216L13.7033 12.7741C13.751 13.0089 13.8054 13.2607 13.8259 13.339C13.9143 13.6555 13.802 13.8392 13.8599 13.9039C13.9177 13.9685 14.1355 13.5636 14.2002 13.3526C14.2175 13.0912 14.1898 12.8288 14.1185 12.5767C14.3624 12.6907 14.5846 12.8462 14.7753 13.0361C15.061 13.3011 15.2673 13.6405 15.3708 14.0162C15.4786 14.3803 15.5504 14.7542 15.5852 15.1324C15.5852 15.4318 15.4899 17.0278 13.6013 17.5621C13.3724 17.6213 13.1367 17.6499 12.9002 17.6472C12.3721 17.6551 11.8551 17.4955 11.4234 17.1912C11.0074 16.8557 10.6865 16.4172 10.4925 15.9194C10.2985 15.4215 10.2381 14.8815 10.3174 14.3531C10.3906 14.0603 10.5125 13.7819 10.6781 13.5296C10.7627 13.5815 10.8529 13.6238 10.9469 13.6555L11.0014 13.9141C11.0014 13.9447 11.1545 14.6662 11.4336 14.8839C11.5862 14.9799 11.7638 15.0284 11.944 15.0235C12.0257 15.0235 12.2231 15.0235 12.2605 14.9282C12.2667 14.9131 12.2681 14.8965 12.2644 14.8807C12.2608 14.8648 12.2522 14.8505 12.2401 14.8397C12.2131 14.8178 12.1833 14.7995 12.1516 14.7853C12.0155 14.7138 11.7671 14.5777 11.7126 14.3327C11.682 14.1931 11.5663 13.7099 11.5016 13.4207C11.7807 13.1961 11.8113 12.9511 11.4438 13.0293C11.3387 13.0438 11.2317 13.0349 11.1305 13.0031C11.0293 12.9713 10.9364 12.9175 10.8585 12.8456C10.1234 12.2024 9.35094 10.2219 9.1944 9.87136C8.56825 8.28217 8.43554 7.43142 8.63291 7.19321M18.5968 24.6165C18.7347 24.6318 18.8733 24.6398 19.012 24.6403C19.7222 24.6262 20.4182 24.4391 21.0396 24.0951C21.6611 23.7512 22.1893 23.2608 22.5783 22.6666C23.2899 22.9813 24.0208 23.2507 24.7664 23.4731C26.5339 23.9856 28.3383 24.361 30.1636 24.5961C31.188 24.7332 32.22 24.8059 33.2535 24.8138C33.858 24.8184 34.4621 24.7775 35.0604 24.6913C35.1762 24.6732 35.2901 24.6447 35.4007 24.6063C35.5808 24.8278 35.7148 25.0832 35.7949 25.3572C35.8749 25.6313 35.8994 25.9186 35.867 26.2023H18.818C18.5886 25.7073 18.5116 25.1553 18.5968 24.6165Z" fill="white"/>
  <path d="M27.6966 14.0779C27.6966 14.02 27.6081 14.02 27.5843 14.02C27.512 14.0227 27.4406 14.0377 27.3733 14.0643C27.2922 14.0966 27.2215 14.1504 27.1687 14.22C27.1159 14.2895 27.0831 14.3722 27.0739 14.459C27.0741 14.477 27.0814 14.4941 27.0943 14.5066C27.1021 14.5148 27.1117 14.5212 27.1223 14.5253C27.1329 14.5294 27.1442 14.5312 27.1555 14.5305C27.163 14.5305 27.1703 14.529 27.1772 14.526C27.184 14.5231 27.1902 14.5188 27.1953 14.5133C27.2004 14.5079 27.2043 14.5015 27.2068 14.4945C27.2094 14.4875 27.2104 14.48 27.21 14.4726C27.2174 14.4211 27.2413 14.3734 27.278 14.3365C27.3706 14.2464 27.4901 14.189 27.6183 14.1732C27.6558 14.1732 27.7102 14.1323 27.6966 14.0745" fill="#B1B1B1"/>
  <path d="M30.3582 15.4559C30.1696 15.5118 29.9719 15.5303 29.7763 15.5103C29.5825 15.4985 29.3924 15.4524 29.2148 15.3742C29.0262 15.2786 28.8557 15.1508 28.7111 14.9965C29.4109 15.1811 30.1372 15.2444 30.8584 15.1837C30.7102 15.3066 30.5407 15.4012 30.3582 15.4627M31.8759 14.5337C31.8044 14.5337 31.784 14.5881 31.8146 14.6119L31.8419 14.6392L31.767 14.68C31.6047 14.7543 31.4346 14.8102 31.26 14.8468C30.8305 14.9364 30.3899 14.9604 29.9532 14.9182C29.2328 14.8631 28.5255 14.6954 27.857 14.4214L27.68 14.3533L27.5916 14.3125C27.5702 14.3043 27.5473 14.3014 27.5246 14.3039C27.5019 14.3065 27.4802 14.3144 27.4612 14.327C27.4422 14.3397 27.4265 14.3567 27.4154 14.3767C27.4044 14.3967 27.3982 14.419 27.3976 14.4418C27.3977 14.4746 27.4079 14.5065 27.4268 14.5333C27.4456 14.56 27.4723 14.5804 27.5031 14.5915C27.6836 14.6803 27.8701 14.7565 28.0612 14.8195C28.2175 14.9063 28.356 15.0217 28.4695 15.1598C28.6174 15.3189 28.7869 15.4564 28.9732 15.5682C29.3423 15.7711 29.7682 15.8465 30.1846 15.7826C30.3948 15.7491 30.5961 15.6739 30.7767 15.5614C30.9046 15.4756 31.0273 15.3824 31.1443 15.2823C31.2148 15.2233 31.2899 15.1698 31.3689 15.1224C31.4165 15.0952 31.7432 14.9659 31.9167 14.8672C31.9167 14.9284 31.9167 14.9795 31.9542 14.9897C31.9916 14.9999 32.0392 14.9148 32.0563 14.8434C32.0749 14.7835 32.0749 14.7194 32.0563 14.6596C32.0396 14.6288 32.0163 14.6022 31.9881 14.5816C31.9598 14.561 31.9273 14.5469 31.8929 14.5405M27.9046 12.0869C27.9284 11.8147 28.085 10.964 28.7656 11.032C28.9545 11.0508 29.1294 11.14 29.2555 11.2819C29.3816 11.4237 29.4497 11.6079 29.4462 11.7977V11.8419C29.4743 12.1037 29.4357 12.3682 29.3339 12.611C29.3016 12.6939 29.2617 12.7736 29.2148 12.8492C29.1765 12.9335 29.1195 13.0079 29.0482 13.0669C28.9768 13.1259 28.893 13.1678 28.803 13.1895H28.7656C28.898 13.1006 29.0072 12.9813 29.0842 12.8416C29.1611 12.7019 29.2036 12.5458 29.208 12.3864C29.2522 11.8862 29.014 11.454 28.6737 11.4234C28.5893 11.4205 28.5054 11.4379 28.4291 11.474C28.3527 11.5101 28.2861 11.5639 28.2347 11.6309C28.2998 11.6462 28.358 11.6825 28.4003 11.7342C28.4426 11.786 28.4665 11.8502 28.4685 11.917C28.4704 11.9838 28.4502 12.0494 28.411 12.1035C28.3718 12.1576 28.3158 12.1973 28.2517 12.2163C28.1981 12.2135 28.1468 12.1929 28.1061 12.1578C28.0655 12.1227 28.0377 12.075 28.0271 12.0223C28.0028 12.1067 27.9868 12.1933 27.9795 12.2809C27.9451 12.551 28.0131 12.8242 28.1701 13.0466C28.1491 13.0291 28.1297 13.0097 28.1122 12.9887C27.9915 12.823 27.9175 12.6279 27.8978 12.4238C27.8859 12.3107 27.8859 12.1967 27.8978 12.0835M27.9761 13.1044C28.0508 13.1944 28.1483 13.2626 28.2585 13.3018C28.354 13.3355 28.4536 13.3561 28.5546 13.3631C28.6441 13.3678 28.7339 13.3678 28.8234 13.3631C29.242 13.3631 29.6333 12.7063 29.647 12.0767C29.647 11.505 29.5823 11.0558 29.1705 10.8108C29.1275 10.7846 29.0819 10.763 29.0344 10.7462C28.8541 10.6811 28.6581 10.6728 28.4729 10.7223C28.262 10.786 28.0847 10.9303 27.9795 11.1239C27.8685 11.3209 27.7903 11.5347 27.7481 11.7569C27.698 11.9802 27.6877 12.2105 27.7175 12.4374C27.7417 12.6764 27.8299 12.9045 27.9727 13.0976M32.1311 12.6518C32.1095 12.759 32.0776 12.8639 32.0358 12.9649C31.967 13.1541 31.8496 13.3219 31.6955 13.4515C31.6391 13.4924 31.5738 13.5192 31.505 13.5298C31.6305 13.4382 31.7334 13.3192 31.806 13.1818C31.8785 13.0444 31.9187 12.8922 31.9235 12.7369C31.9678 12.2367 31.7364 11.8045 31.4029 11.7773C31.32 11.7723 31.2372 11.7873 31.1614 11.8211C31.0856 11.8548 31.019 11.9063 30.9673 11.9712C31.0864 11.9712 31.1851 12.0937 31.1919 12.2503C31.2022 12.3177 31.1864 12.3864 31.1479 12.4427C31.1093 12.4989 31.0509 12.5384 30.9843 12.5531C30.9315 12.5501 30.8812 12.5293 30.8417 12.4941C30.8021 12.4589 30.7757 12.4113 30.7665 12.3592C30.7421 12.4436 30.7261 12.5302 30.7189 12.6178C30.6995 12.7612 30.7097 12.9071 30.7489 13.0464C30.7882 13.1857 30.8555 13.3155 30.9469 13.4277C30.8208 13.3304 30.7329 13.1919 30.6985 13.0364C30.6734 12.952 30.6563 12.8654 30.6474 12.7777C30.614 12.5189 30.6456 12.2557 30.7393 12.0121V11.9678C30.7818 11.7842 30.8928 11.6238 31.0497 11.5194C31.2066 11.415 31.3975 11.3746 31.5832 11.4063C32.2366 11.5118 32.1686 12.366 32.1209 12.6314M32.2843 11.6888C32.2363 11.4786 32.1081 11.2954 31.9269 11.1783C31.7663 11.0857 31.5808 11.0453 31.3961 11.0626C31.3475 11.0679 31.2996 11.0782 31.2532 11.0933C30.8006 11.2362 30.6202 11.6377 30.4875 12.189C30.3412 12.7948 30.5453 13.506 30.9333 13.6285C31.0173 13.6513 31.1025 13.6695 31.1885 13.6829C31.2855 13.697 31.3841 13.697 31.4812 13.6829C31.5945 13.6727 31.7028 13.6315 31.7942 13.5638C31.9776 13.4132 32.1183 13.2173 32.2026 12.9955C32.2877 12.7853 32.3361 12.562 32.3455 12.3354C32.3634 12.1069 32.3438 11.877 32.2877 11.6548" fill="#B1B1B1"/>
</svg>