<svg xmlns="http://www.w3.org/2000/svg" width="160" height="96" viewBox="0 0 160 96" fill="none">
  <rect width="160" height="96" fill="white"/>
  <path fill-rule="evenodd" clip-rule="evenodd" d="M98.0835 43.0515L97.0171 46.8915L101.59 46.8945L101.706 46.5107C102.611 43.1792 100.084 42.4973 99.0663 42.4973H95.4839C93.7483 42.4973 91.5803 42.7057 90.8268 45.3942C90.1853 47.7414 89.8089 48.7832 90.6939 49.9572C91.2323 50.6689 92.5422 50.866 94.3517 51.2439C95.7094 51.5471 95.4839 52.3798 95.2576 53.2513C95.0679 53.8943 94.6728 54.2737 94.0306 54.2737C93.6161 54.2737 93.1262 53.9892 93.3144 53.3268L93.6848 51.8914L89.0345 51.8884L88.6566 53.2887C88.0905 55.1437 89.2227 56.96 91.711 56.96H94.2755C97.5936 56.96 99.2321 56.0967 100.178 52.9287C100.517 51.7928 100.873 50.471 100.348 49.5405C99.6316 48.2716 96.6287 47.8743 95.634 47.61C94.994 47.439 95.1702 46.7803 95.3031 46.1343C95.5937 45.0761 95.8416 44.808 96.2135 44.4816L97.7332 42.9783C97.8781 42.876 98.1186 42.8864 98.0835 43.0515ZM26.609 47.8034C28.0309 48.2948 29.9547 49.4703 29.0443 52.5643C28.0645 55.8958 25.9518 56.9607 22.4821 56.9607H10L21.6532 45.9767L19.5412 53.7009H20.6726C21.5023 53.7009 22.0303 53.1699 22.2566 52.4889L26.0279 39.0105C28.7433 39.0105 31.7522 39.3234 31.157 43.2509C30.6574 46.5488 28.467 47.3195 26.6358 47.6652C26.5179 47.6802 26.5179 47.7937 26.609 47.8034Z" fill="black"/>
  <path fill-rule="evenodd" clip-rule="evenodd" d="M25.8316 39L13.1986 50.8137L16.4987 39H25.8316Z" fill="#B1B1B1"/>
  <path fill-rule="evenodd" clip-rule="evenodd" d="M42.8056 56.96L46.8033 42.4981H51.479L47.4814 56.96H42.8056ZM104.999 46.8168L106.806 45.3755H102.584L103.376 42.4973H112.991L112.163 45.3755H109.635L106.431 56.96H101.754L104.108 48.4419C104.28 47.7608 104.491 47.2164 104.999 46.8168ZM133.333 43.0514L129.489 56.96H134.164L137.182 45.9812C137.784 43.6339 136.654 42.4973 134.994 42.4973H126.999L123.002 56.96H127.679L130.649 46.1305C130.978 45.0491 131.224 44.7698 131.558 44.4614L133.009 42.9656C133.127 42.8961 133.388 42.8483 133.333 43.0514ZM83.467 49.2544L84.4154 48.6958C84.6372 48.5367 85.2966 48.1969 86.1644 48.1768H88.3145L87.5221 50.9788H82.7321L82.1294 53.0997C81.9778 53.6673 82.3938 54.084 82.8456 54.084H86.6917L85.8993 56.9607H80.4693C77.9802 56.9607 76.9623 54.8032 77.4149 53.2894L79.5642 45.3762C80.243 42.7258 82.5058 42.4981 84.2399 42.4981H89.8962L89.1039 45.3762H85.2212C84.5035 45.3762 84.1271 45.8684 84.0517 46.1709L83.2287 49.0446C83.1653 49.1991 83.1824 49.403 83.467 49.2544ZM73.7794 43.0514L72.6465 47.1268L77.335 47.1193L77.553 46.3224C78.4581 42.9909 75.7435 42.4981 74.7249 42.4981H71.1798C69.4449 42.4981 67.1821 42.7258 66.504 45.3762L64.3547 53.2894C63.7894 55.1445 64.9201 56.9607 67.4092 56.9607H74.6121L76.7801 49.1297H72.1021L70.7272 54.0848H69.7474C69.3329 54.0848 68.8796 53.6673 69.1066 53.0624L70.9864 46.132C71.1238 45.6981 71.3635 44.8968 71.8945 44.4831L73.418 42.9872C73.4994 42.8961 73.8339 42.8483 73.7794 43.0514ZM39.9125 43.0552L36.0583 56.9607H40.7721C40.7721 56.9607 41.4763 54.2692 42.0163 52.4567C42.5069 50.81 40.678 49.8825 40.4517 49.8825C40.2247 49.8825 40.2247 49.5412 40.4517 49.5412C41.7332 49.5031 43.0162 49.2761 43.8265 46.2851C44.7802 42.7669 41.6884 42.4988 40.5458 42.4988H33.4564L29.4214 56.9614H34.1352L37.121 46.1357C37.354 45.2859 37.699 44.7332 38.0485 44.4771L39.5809 42.9872C39.6593 42.8961 39.9588 42.873 39.9125 43.0552ZM143.288 49.2544L144.236 48.6958C144.458 48.5367 145.119 48.1969 145.985 48.1768H148.135L147.343 50.9788H142.554L141.95 53.0997C141.8 53.6673 142.214 54.084 142.666 54.084H146.512L145.72 56.9607H140.291C137.801 56.9607 136.783 54.8032 137.235 53.2894L139.385 45.3762C140.063 42.7258 142.326 42.4981 144.061 42.4981H149.718L148.925 45.3762H145.041C144.325 45.3762 143.947 45.8684 143.873 46.1709L143.05 49.0446C142.987 49.1991 143.003 49.403 143.288 49.2544ZM60.788 42.4981H53.9622L49.9279 56.9607H56.5648C59.8828 56.9607 61.5423 55.8256 62.1083 53.7054L64.106 46.5121C65.0119 43.1799 61.8059 42.4981 60.788 42.4981ZM60.4138 43.0485L57.7014 52.7174C57.2115 54.3073 56.0054 54.081 55.4394 54.081L57.6178 46.1268C57.8732 45.3105 58.1734 44.7661 58.5379 44.4711L60.0524 42.9827C60.1719 42.873 60.5049 42.8632 60.4138 43.0485ZM120.565 42.4981H117.661C115.927 42.4981 113.664 42.7258 112.986 45.3762L110.836 53.2894C110.27 55.1445 111.402 56.9607 113.89 56.9607H116.342C119.66 56.9607 121.319 55.8256 121.885 53.7054L123.883 46.5121C124.789 43.1799 121.583 42.4981 120.565 42.4981ZM120.154 43.044L117.326 53.2864C117.137 53.9294 116.609 54.2692 116.194 54.2692C115.779 54.2692 115.289 53.9675 115.515 53.3604L117.471 46.1283C117.786 45.0857 118.061 44.7474 118.376 44.4577L119.827 42.9618C119.928 42.873 120.192 42.8924 120.154 43.044Z" fill="black"/>
</svg>