<svg xmlns="http://www.w3.org/2000/svg" width="160" height="96" viewBox="0 0 160 96" fill="none">
  <rect width="160" height="96" fill="white"/>
  <path fill-rule="evenodd" clip-rule="evenodd" d="M60.0586 68.3725L58.6328 56.8245C54.8578 54.1402 51.9495 51.9309 48.4543 49.3865C46.8041 37.2222 49.8522 30.6231 54.3262 24.3595C59.8908 17.2849 68.8387 12 79.5484 12C90.2585 12.1115 99.2343 17.5084 104.52 24.583C109.469 31.2941 112.125 39.7387 110.195 49.722L100.549 56.8245L99.1219 68.3725H83.8271C82.8763 69.1282 81.5904 69.8267 79.5484 69.8829C77.5352 69.8267 76.2767 69.1282 75.2422 68.3725H60.0586Z" fill="black"/>
  <path fill-rule="evenodd" clip-rule="evenodd" d="M79.9249 52.3503C79.1139 41.5844 78.8904 28.302 78.2193 17.6485C77.0728 17.3688 75.4509 17.4529 74.1088 17.6764C72.7667 18.0961 71.7879 18.4595 70.6415 19.1027C72.7388 29.3369 75.1716 42.3675 77.2411 52.5181C74.4169 42.6472 70.6415 30.2878 67.8456 20.4448C66.5035 20.7246 65.1892 21.4793 64.2389 22.2624C63.2322 23.0454 62.6448 23.6328 61.7219 25.0307C65.7762 33.6993 70.6415 44.7445 74.7245 53.3569C69.9983 45.5272 64.2659 35.2092 59.5121 27.4357C58.5896 28.2467 57.8902 28.8341 56.9673 30.3997C56.1842 31.6582 55.7929 33.1402 55.6252 34.5665C60.8264 40.9142 67.0338 48.52 72.2629 54.8389C66.8107 49.5819 60.0991 42.815 54.7027 37.558C54.1715 38.6204 53.8359 39.5154 53.6682 41.2767C53.4725 42.9823 53.808 45.0234 54.1715 46.254L64.7134 54.0837L65.832 62.7802L77.4367 62.8639C78.2755 63.8426 78.5549 64.3459 79.9253 64.4296C81.2391 64.3459 81.9948 63.5349 82.3303 62.8639H93.9063L95.0802 54.1395L105.539 46.3655C105.93 45.0796 106.181 43.0939 106.042 41.3883C105.874 39.5429 105.539 38.6199 105.091 37.6412C99.667 42.8703 92.9275 49.6377 87.5311 54.8942C92.7877 48.6306 98.9397 40.9965 104.196 34.5935C103.917 33.1677 103.581 31.7131 102.742 30.4551C101.763 28.889 101.204 28.302 100.309 27.4632C95.5282 35.2088 89.7116 45.6113 84.9858 53.3843C89.1809 44.7441 93.9341 33.6989 98.0451 25.1427C97.1505 23.7723 96.5069 23.0733 95.6123 22.3465C94.5499 21.5355 93.2356 20.7808 91.9493 20.4731C89.0131 30.2878 85.4063 42.7592 82.5538 52.5459C84.5387 42.3953 87.0278 29.4768 89.0131 19.2709C88.007 18.5436 87.0282 18.1802 85.7131 17.7889C84.2036 17.5091 82.7216 17.4533 81.5468 17.649C80.7642 28.3861 80.7354 41.6406 79.9249 52.3503Z" fill="white"/>
  <path fill-rule="evenodd" clip-rule="evenodd" d="M48 80.6761H53.4248C53.3411 81.8788 53.9285 82.1581 54.2083 82.3542C54.5155 82.4657 56.781 82.5773 57.8992 82.3816C58.3467 82.298 58.7659 82.1302 58.7659 80.7597C58.7659 80.1728 58.626 79.5296 57.9549 79.3892C55.5779 79.194 53.257 79.4455 50.8804 79.2215C48.5033 78.6907 48.1403 78.075 48 76.2017C48.1678 73.601 49.0907 72.8463 51.7471 72.7622C54.5149 72.6785 57.2845 72.6785 60.0523 72.7622C62.8764 72.7622 63.7431 73.8534 63.7431 76.23H58.7659C58.7659 75.0552 58.5424 74.6081 57.9549 74.5519C56.7447 74.4682 55.5301 74.4682 54.3198 74.5519C53.8723 74.5519 53.2853 74.7759 53.2853 75.8382C53.2853 76.8444 53.5368 77.0963 54.2083 77.1808C56.2494 77.264 58.3188 77.2924 60.332 77.4314C63.6874 77.6275 63.7994 79.1095 63.9109 80.6752C63.9667 82.9128 63.1557 83.695 62.5688 84.0593C62.0097 84.3107 59.2971 84.6188 58.7659 84.6188H53.3973C52.1946 84.6188 50.6847 84.4789 49.3705 84.0872C48.1399 83.7521 48 82.1023 48 80.6761ZM98.9765 84.6746H103.73V72.8189H98.9765V84.6746ZM106.917 84.6746H111.615V72.8189H106.917V84.6746ZM96.2081 78.4667C96.1216 78.0959 96.0092 77.7316 95.8717 77.3765C95.0608 76.0622 92.2649 76.0622 89.5528 76.006C87.5117 76.006 84.464 76.0622 83.5689 76.9285C83.2051 77.3203 83.0094 77.8793 82.8979 78.4667C82.758 79.1661 82.7854 79.8926 82.7854 80.2285C82.7854 80.8434 82.8416 83.22 83.9881 83.8353C85.0505 84.5347 88.266 84.6188 89.4961 84.6188C90.8104 84.6188 94.4459 84.4789 94.9776 83.8632C95.9275 83.5277 96.1515 82.3537 96.3471 81.4312H91.6775C91.6775 82.3537 90.9503 82.9133 89.4961 82.8283C88.1819 82.9128 87.4271 82.6052 87.4271 80.9558L96.3467 80.9833C96.3471 80.1728 96.3759 79.3056 96.2081 78.4667ZM91.6775 79.2777H87.4271C87.4271 78.9422 87.4833 78.662 87.567 78.4667C87.8738 77.712 88.6573 77.6841 89.4957 77.6279C90.782 77.6279 91.3416 77.9356 91.5655 78.4667C91.6775 78.6907 91.7054 78.97 91.6775 79.2777ZM66.7072 84.6746H71.3489V79.6411C71.4609 78.9426 71.6287 78.3831 73.3342 78.3831C74.9557 78.3556 75.4032 78.8023 75.4032 79.6411V84.6746H80.0449V79.6411C80.0449 77.9913 80.0175 77.0967 78.9547 76.6222C78.0038 76.0065 76.6334 76.0906 75.3474 76.0906C74.0053 76.0906 72.4954 76.2583 71.3489 76.8178V72.8193H66.7072V84.6746Z" fill="black"/>
</svg>