<svg xmlns="http://www.w3.org/2000/svg" width="160" height="96" viewBox="0 0 160 96" fill="none">
  <rect width="160" height="96" fill="white"/>
  <path fill-rule="evenodd" clip-rule="evenodd" d="M34.6082 41.5394H26.3307L22.6288 50.0089V41.5394H15V59.9107H22.6288V51.446L26.9178 59.9166H35.1937L30.5901 50.7267L34.6082 41.5394Z" fill="black"/>
  <path fill-rule="evenodd" clip-rule="evenodd" d="M33.8062 50.5694C33.8062 45.2198 38.1439 40.8811 43.4932 40.8811C48.845 40.8811 53.1824 45.2198 53.1824 50.5694C53.1824 55.9202 48.845 60.2577 43.4932 60.2577C38.1439 60.2577 33.8062 55.9202 33.8062 50.5694ZM43.4932 53.4323C45.076 53.4323 46.3568 52.1502 46.3568 50.5694C46.3568 48.9883 45.076 47.7073 43.4932 47.7073C41.9125 47.7073 40.6317 48.9883 40.6317 50.5694C40.6317 52.1502 41.9125 53.4323 43.4932 53.4323Z" fill="black"/>
  <path fill-rule="evenodd" clip-rule="evenodd" d="M96.5522 59.911L90.4767 41.5397H82.8465L76.7695 59.911H83.742L86.6624 51.0851L89.5805 59.911H96.5522Z" fill="black"/>
  <path fill-rule="evenodd" clip-rule="evenodd" d="M77.2394 59.911L74.6687 41.5397H67.6424L65.4094 49.0855L63.2157 41.6731L63.2341 41.5397H56.2621L53.6899 59.911H60.6623L61.5521 53.5504L63.3192 59.911H67.5108V59.867L69.3387 53.283L70.2672 59.911H77.2394Z" fill="black"/>
  <path fill-rule="evenodd" clip-rule="evenodd" d="M94.5991 41.5397V48.0784H98.9995V59.911H106.47V41.5397H94.5991Z" fill="black"/>
  <path fill-rule="evenodd" clip-rule="evenodd" d="M106.47 35H113.01V41.5397H106.47V35Z" fill="black"/>
  <path fill-rule="evenodd" clip-rule="evenodd" d="M135.473 41.5396V52.7884C135.473 53.3013 135.943 53.7196 136.521 53.7196C137.102 53.7196 137.571 53.3013 137.571 52.7884V41.5396H145V52.7884C145 56.9452 141.203 60.3163 136.521 60.3163C131.84 60.3163 128.044 56.9452 128.044 52.7884V41.5396H135.473Z" fill="black"/>
  <path fill-rule="evenodd" clip-rule="evenodd" d="M124.505 47.3772L126.49 42.3276C124.3 41.3636 122.578 40.43 119.278 40.43C115.98 40.43 111.426 41.9481 111.426 47.6403C111.426 49.6704 112.819 51.3128 116.476 52.5738C118.17 53.1582 118.929 53.0412 118.929 53.9754C118.929 54.9096 117.703 55.9899 112.593 52.9534L110.462 57.9747C112.886 59.2884 116.185 60.2809 118.579 60.2809C120.972 60.2809 126.403 58.9088 126.403 53.7125C126.403 49.7207 124.699 49.345 121.293 47.9616C119.425 47.2024 118.84 47.3489 118.84 46.4148C118.84 45.4812 120.009 45.4507 121.177 45.889C122.345 46.3272 123.746 46.9109 124.505 47.3772Z" fill="black"/>
</svg>