<svg xmlns="http://www.w3.org/2000/svg" width="135" height="19" viewBox="0 0 135 19" fill="none">
  <g clip-path="url(#clip0_114_2181)">
    <path fill-rule="evenodd" clip-rule="evenodd" d="M-0.000244141 0.793823V3.24936H4.02744L11.9095 18.0312H21.6088L29.4908 3.22482L33.5178 3.19944L33.5265 0.793823H21.4773V3.20784H24.6861L19.1203 13.7166L13.1009 3.24449L17.4913 3.22482L17.4836 0.793823H-0.000244141Z" fill="black"/>
    <path fill-rule="evenodd" clip-rule="evenodd" d="M77.7333 0.793823V3.24936H81.7598L89.642 18.0312H99.3416L107.224 3.22482L111.251 3.19944L111.258 0.793823H99.2113V3.20784H102.419L96.8531 13.7166L90.833 3.24449L95.2248 3.22482L95.2166 0.793823H77.7333Z" fill="black"/>
    <path fill-rule="evenodd" clip-rule="evenodd" d="M57.9148 0.793747V3.24929H61.9418L61.9486 15.3174H57.703V18.0072L61.9514 18.0313H82.059V10.0075H79.4398C79.2962 14.2558 75.611 15.3231 74.0587 15.3231C72.6363 15.3231 69.8804 15.3175 69.8804 15.3175V3.24441L73.8468 3.22458L73.8415 0.793579L57.9148 0.793747Z" fill="black"/>
    <path fill-rule="evenodd" clip-rule="evenodd" d="M44.1796 15.8238C41.7664 15.8238 39.8112 12.9332 39.8112 9.36561C39.8112 5.7972 41.7664 2.90441 44.1796 2.90441C46.5921 2.90441 48.5481 5.7972 48.5481 9.36561C48.5481 12.9332 46.5921 15.8238 44.1796 15.8238ZM44.3571 0.298584C37.5118 0.298584 31.9628 4.37468 31.9628 9.40075C31.9628 14.4272 37.5117 18.5027 44.3571 18.5027C51.202 18.5027 56.7519 14.4272 56.7519 9.40075C56.7519 4.37468 51.202 0.298584 44.3571 0.298584Z" fill="black"/>
    <path fill-rule="evenodd" clip-rule="evenodd" d="M121.913 15.778C119.501 15.778 117.546 12.8395 117.546 9.21295C117.546 5.58771 119.501 2.64853 121.913 2.64853C124.326 2.64853 126.281 5.58771 126.281 9.21295C126.281 12.8394 124.326 15.778 121.913 15.778ZM122.092 0C115.245 0 109.698 4.1425 109.698 9.2506C109.698 14.3585 115.245 18.5002 122.092 18.5002C128.936 18.5002 134.485 14.3585 134.485 9.2506C134.485 4.1425 128.936 0 122.092 0Z" fill="black"/>
  </g>
  <defs>
    <clipPath id="clip0_114_2181">
      <rect width="134.486" height="18.5029" fill="white"/>
    </clipPath>
  </defs>
</svg>