<svg xmlns="http://www.w3.org/2000/svg" width="133" height="28" viewBox="0 0 133 28" fill="none">
  <path d="M31.1458 8.1663H36.1535V2.10612H40.381V18.0111H36.1535V11.1857H31.1458V18.0111H26.915V2.10612H31.1458V8.1663ZM46.7013 2.10612L49.8257 8.46526L52.9112 2.10612H57.784L51.9515 12.0054V18.0111H47.6954V12.0054L41.8174 2.10612H46.7013ZM73.0314 11.9619C73.0314 16.3302 70.2176 18.2945 66.0783 18.2945C61.9156 18.2945 59.1018 16.3302 59.1018 11.9619V2.10547H63.3326V11.2454C63.3326 13.3549 63.9045 15.1396 66.0783 15.1396C68.2267 15.1396 68.8007 13.3549 68.8007 11.2454V2.10547H73.0314V11.9619ZM86.6174 12.8945H86.666L86.598 2.10612H90.4811V18.0111H85.2244L79.6435 7.14427H79.5981L79.7349 18.0111H75.8491V2.10612H81.2453L86.6174 12.8945ZM97.848 5.25715H99.4751C102.584 5.25715 104.432 6.90433 104.432 10.034C104.432 13.2142 102.652 14.8659 99.4751 14.8659H97.848V5.25715ZM93.5959 18.0111H99.3817C104.823 18.0111 108.806 15.9405 108.806 9.96912C108.806 3.8363 104.938 2.10612 99.3817 2.10612H93.5959V18.0111ZM119.261 11.5897H115.282L117.339 5.39334H117.384L119.261 11.5897ZM108.743 18.0111H113.04L114.298 14.6104H120.268L121.458 18.0111H126.1L119.969 2.10612H114.779L108.743 18.0111ZM127.647 2.10612H131.876V18.0111H127.647V2.10612Z" fill="#0451A0"/>
  <path d="M20.7979 18.0113H0L10.398 0L20.7979 18.0113Z" fill="#FCB817"/>
  <path d="M23.2429 18.0113H2.44824L12.8475 0L23.2429 18.0113Z" fill="#06A64E"/>
  <path d="M28.3443 23.0297H30.0453V20.9739H31.4746V26.3214H30.0453V24.0206H28.3443V26.3214H26.915V20.9739H28.3443V23.0297ZM36.1788 21.9758H33.841V23.0997H36.051V24.0899H33.841V25.2884H36.267V26.3214H32.437V20.9739H36.1788V21.9758ZM40.1508 24.158H38.8182L39.5159 22.064H39.5322L40.1508 24.158ZM36.623 26.3214H38.0737L38.4907 25.1574H40.4919L40.8843 26.3214H42.4504L40.3914 20.9739H38.6508L36.623 26.3214ZM44.4672 25.1528H44.4841L45.6812 20.9739H47.1247L45.3122 26.3214H43.5502L41.7578 20.9739H43.2753L44.4672 25.1528ZM48.9224 20.9739L49.9801 23.1302L51.0209 20.9739H52.6603L50.6895 24.2923V26.3214H49.2589V24.2923L47.2856 20.9739H48.9224ZM55.238 20.9739H56.6673V26.3214H55.238V20.9739ZM61.367 24.5912H61.3838L61.3579 20.9739H62.6653V26.3214H60.8877L59.0421 22.6522H59.0266L59.0726 26.3214H57.7568V20.9739H59.5745L61.367 24.5912ZM65.1107 22.0225H65.6684C66.7093 22.0225 67.3117 22.5673 67.3117 23.6425C67.3117 24.6963 66.7307 25.2436 65.6684 25.2436H65.1107V22.0225ZM63.6814 26.3214H65.6393C67.4414 26.3214 68.7825 25.6301 68.7825 23.6172C68.7825 21.5511 67.4771 20.9739 65.6393 20.9739H63.6814V26.3214ZM74.1572 24.2774C74.1572 25.7605 73.2312 26.4116 71.8285 26.4116C70.4297 26.4116 69.4855 25.7605 69.4855 24.2774V20.9739H70.9135V24.0426C70.9135 24.743 71.1022 25.3357 71.8285 25.3357C72.5606 25.3357 72.7513 24.743 72.7513 24.0426V20.9739H74.1572V24.2774ZM75.0184 24.9855C75.3797 25.1807 75.8991 25.3363 76.4892 25.3363C76.9406 25.3363 77.3777 25.2436 77.3777 24.8195C77.3777 23.8331 74.8433 24.4524 74.8433 22.507C74.8433 21.2327 76.1008 20.8818 77.174 20.8818C77.6902 20.8818 78.1902 20.9577 78.5547 21.0809L78.4619 22.1756C78.091 22.0083 77.6812 21.9311 77.2732 21.9311C76.9081 21.9311 76.3161 21.9629 76.3161 22.4227C76.3161 23.313 78.8517 22.7054 78.8517 24.6366C78.8517 26.0413 77.6812 26.4122 76.4892 26.4122C75.9944 26.4122 75.3673 26.3376 74.8959 26.1852L75.0184 24.9855ZM79.1292 20.9739H83.1797V22.0225H81.8601V26.3214H80.4321V22.0225H79.1292V20.9739ZM85.1687 21.9758H85.55C86.0895 21.9758 86.5889 22.0647 86.5889 22.5595C86.5889 23.1918 86.0046 23.2041 85.55 23.2041H85.1687V21.9758ZM83.7407 26.3214H85.1687V24.195H85.4722C85.9936 24.195 86.181 24.4233 86.4773 25.3363L86.7705 26.3221H88.2523L87.727 24.8493C87.454 24.2041 87.4254 23.8027 86.9663 23.6794V23.6658C87.6589 23.5173 87.9968 23.0465 87.9968 22.3118C87.9968 21.4013 87.2179 20.9739 86.2906 20.9739H83.7407V26.3214ZM88.9455 20.9739H90.3767V26.3214H88.9455V20.9739ZM95.16 21.9758H92.8339V23.0997H95.0323V24.0899H92.8339V25.2884H95.243V26.3214H91.404V20.9739H95.16V21.9758ZM96.1315 24.9855C96.4979 25.1807 97.0141 25.3363 97.6042 25.3363C98.0569 25.3363 98.4901 25.2436 98.4901 24.8195C98.4901 23.8331 95.9551 24.4524 95.9551 22.507C95.9551 21.2327 97.2132 20.8818 98.289 20.8818C98.8052 20.8818 99.3104 20.9577 99.6716 21.0809L99.5782 22.1756C99.2079 22.0083 98.7961 21.9311 98.3876 21.9311C98.0264 21.9311 97.4311 21.9629 97.4311 22.4227C97.4311 23.313 99.9576 22.7054 99.9576 24.6366C99.9576 26.0413 98.7962 26.4122 97.6042 26.4122C97.1055 26.4122 96.4836 26.3376 96.0109 26.1852L96.1315 24.9855ZM107.583 26.2001C107.175 26.2961 106.734 26.4116 106.015 26.4116C104.587 26.4116 102.935 25.7002 102.935 23.6658C102.935 21.8027 104.24 20.8818 106.007 20.8818C106.55 20.8818 107.059 21.0057 107.575 21.1555L107.457 22.3033C106.998 22.0511 106.574 21.9311 106.087 21.9311C105.072 21.9311 104.406 22.6594 104.406 23.6665C104.406 24.7054 105.155 25.337 106.202 25.337C106.66 25.337 107.119 25.2118 107.515 25.0607L107.583 26.2001ZM109.51 23.6431C109.51 22.7048 109.854 21.9305 110.726 21.9305C111.59 21.9305 111.938 22.7041 111.938 23.6431C111.938 24.516 111.59 25.3363 110.726 25.3363C109.854 25.3363 109.51 24.5154 109.51 23.6431ZM108.036 23.6431C108.036 25.3253 108.972 26.4122 110.726 26.4122C112.475 26.4122 113.4 25.3253 113.4 23.6431C113.4 21.9233 112.49 20.8818 110.726 20.8818C108.96 20.8818 108.036 21.9227 108.036 23.6431ZM113.732 25.0601H115.025V26.3214H113.732V25.0601ZM116.381 27.1346H115.328L115.845 25.0601H117.136L116.381 27.1346ZM119.594 25.2436H121.782V26.3214H118.164V20.9739H119.594V25.2436ZM121.161 20.9739H125.229V22.0225H123.909V26.3214H122.484V22.0225H121.161V20.9739ZM127.236 22.0225H127.788C128.831 22.0225 129.452 22.5673 129.452 23.6425C129.452 24.6963 128.853 25.2436 127.788 25.2436H127.236V22.0225ZM125.83 26.3214H127.757C129.586 26.3214 130.926 25.6301 130.926 23.6172C130.926 21.5511 129.62 20.9739 127.757 20.9739H125.83V26.3214ZM131.245 25.0601H132.538V26.3214H131.245V25.0601Z" fill="#0451A0"/>
</svg>