<svg xmlns="http://www.w3.org/2000/svg" width="133" height="17" viewBox="0 0 133 17" fill="none">
  <g clip-path="url(#clip0_114_2236)">
    <path d="M61.2115 14.9605C61.2115 15.4783 61.6322 15.8989 62.15 15.8989H76.6413V11.9943H66.6802V9.83707H76.4903V6.21289H66.6802V4.02867H76.6413V0.280443H61.2115V14.9605ZM21.3887 14.9605C21.3887 15.4783 21.8093 15.8989 22.3271 15.8989H36.8184V11.9943H26.8573V9.83707H36.6674V6.21289H26.8573V4.02867H36.8184V0.280443H21.3887V14.9605ZM84.2941 0.280443H78.8255V14.9605C78.8255 15.4783 79.2462 15.8989 79.7639 15.8989H94.0989V11.8379H84.2887V0.280443H84.2941ZM128.324 0.280443V11.0074L122.833 0.900653C122.623 0.517741 122.224 0.280443 121.793 0.280443H115.493V15.8989H120.239V5.52796L125.595 15.2841C125.805 15.6617 126.204 15.8989 126.636 15.8989H132.989V0.280443H128.318H128.324ZM113.778 8.09509C113.778 13.5637 110.607 16.1794 104.313 16.1794C98.0197 16.1794 94.8485 13.5637 94.8485 8.09509C94.8485 2.62645 98.0197 0 104.313 0C110.607 0 113.778 2.47545 113.778 8.09509ZM108.31 8.09509C108.31 5.15044 107.096 4.02867 104.313 4.02867C101.73 4.02867 100.317 5.15044 100.317 8.09509C100.317 11.0397 101.628 12.1453 104.313 12.1453C106.999 12.1453 108.31 10.975 108.31 8.09509Z" fill="black"/>
    <path d="M0 0.280396H14.1947C15.2032 0.280396 16.0446 0.808922 16.6324 1.6934C17.4468 2.90685 18.1641 4.2012 18.7789 5.44701C19.1834 6.26138 19.4584 7.17821 19.4584 8.08426C19.4584 8.9903 19.1834 9.90713 18.7789 10.7215C18.1641 11.9727 17.4414 13.2617 16.6324 14.4751C16.0446 15.3596 15.1978 15.8881 14.1947 15.8881H0V0.280396ZM12.3233 11.3633C12.9543 11.1152 13.197 10.619 13.197 9.97185V6.20745C13.197 5.56566 12.9543 5.0695 12.3233 4.81602C10.4033 4.06637 7.80386 3.12797 5.54414 2.40529V13.774C7.80386 13.0459 10.398 12.1129 12.3233 11.3633Z" fill="black"/>
    <path d="M53.8448 0.280396H59.6532L53.1437 15.187C52.9549 15.6185 52.5289 15.8989 52.0543 15.8989H45.9115C45.4369 15.8989 45.0108 15.6185 44.8221 15.1816L38.3827 0.280396H44.2882L49.0665 12.1507L53.8448 0.280396Z" fill="black"/>
  </g>
  <defs>
    <clipPath id="clip0_114_2236">
      <rect width="133" height="16.1794" fill="white"/>
    </clipPath>
  </defs>
</svg>