<svg xmlns="http://www.w3.org/2000/svg" width="129" height="21" viewBox="0 0 129 21" fill="none">
  <g clip-path="url(#clip0_114_2135)">
    <path d="M85.1851 0.000541006C79.8334 -0.0350221 73.3099 2.18423 73.2755 10.2439C73.2411 18.2226 79.9023 20.7407 85.1851 20.5824C90.0957 20.4361 95.5173 19.0715 95.7651 13.0654L90.3372 13.0774C90.184 16.8517 87.1726 17.6003 85.1851 17.6066C83.146 17.614 78.996 17.185 78.9306 10.3247C78.8686 3.84939 82.6779 2.93392 85.1851 2.96146C87.6923 2.98899 90.1794 4.15856 90.2075 7.10685L95.5999 7.10226C95.5449 3.49261 92.4245 0.0492969 85.1851 0.000541006ZM0 0.366497V20.1912H5.24843V11.4421H15.8703V20.1912H21.1434V0.365923H15.8703V8.30051H5.24843V0.365923L0 0.366497ZM25.4976 0.366497V20.1901H30.7822V0.366497H25.4976ZM32.7381 0.366497V3.64576H40.4352V20.1872H45.663V3.64519H53.3619V0.365923L32.7381 0.366497ZM98.3389 0.366497V20.1912H103.587V11.4421H114.209V20.1912H119.458V0.365923H114.209V8.30051H103.588V0.365923L98.3389 0.366497ZM123.71 0.366497V20.1901H129V0.366497H123.71ZM58.2438 0.39575L48.8453 20.1906H54.7425L56.5752 15.743L66.5059 15.7395L68.3339 20.1906H74.2454L64.89 0.39575H58.2438ZM61.5494 3.74327L65.1814 12.5882L57.887 12.5927L61.5494 3.74327Z" fill="black"/>
  </g>
  <defs>
    <clipPath id="clip0_114_2135">
      <rect width="129" height="20.589" fill="white"/>
    </clipPath>
  </defs>
</svg>