<svg xmlns="http://www.w3.org/2000/svg" width="140" height="18" viewBox="0 0 140 18" fill="none">
  <g clip-path="url(#clip0_114_2168)">
    <path d="M33.446 13.328H37.842V17.36H25.256V0H37.716V4.032H33.432V6.804H37.338V10.458H33.432V13.328H33.446ZM14.182 17.36H22.484V0H14.182V17.36ZM8.176 0H0V17.36H11.956V12.712H8.176V0ZM91.574 10.444H95.48V6.79H91.574V4.032H95.858V0H83.398V17.36H95.984V13.328H91.574V10.444ZM59.276 12.698C59.276 14.966 57.946 16.45 55.678 16.996C54.684 17.234 53.074 17.36 51.618 17.36H40.348V0H51.548C52.976 0 54.544 0.126 55.524 0.364C57.736 0.91 59.038 2.394 59.038 4.662C59.038 6.748 57.806 8.176 56.238 8.638C57.918 9.016 59.276 10.5 59.276 12.698ZM48.258 7.042H49.392C50.904 7.042 51.408 6.286 51.408 5.222C51.408 4.158 50.904 3.402 49.392 3.402H48.258V7.042ZM51.66 12.082C51.66 10.948 51.142 10.192 49.518 10.192H48.258V13.972H49.518C51.156 13.958 51.66 13.202 51.66 12.082ZM72.38 6.412H69.608V0H61.432V17.36H69.608V10.696H72.38V17.36H80.556V0H72.38V6.412ZM135.506 10.122C137.648 9.142 138.6 7.518 138.6 5.306C138.6 2.73 137.06 1.05 134.484 0.42C133.35 0.154 131.516 0 129.864 0H119.798V17.36H127.596V11.83H128.296L131.25 17.36H140L135.506 10.122ZM128.73 8.176H127.596V4.032H128.73C130.242 4.032 130.746 4.788 130.746 6.104C130.746 7.42 130.242 8.176 128.73 8.176ZM114.156 10.122C116.298 9.142 117.25 7.518 117.25 5.306C117.25 2.73 115.71 1.05 113.134 0.42C112 0.154 110.166 0 108.514 0H98.448V17.36H106.246V11.83H106.946L109.9 17.36H118.65L114.156 10.122ZM107.366 8.176H106.232V4.032H107.366C108.878 4.032 109.382 4.788 109.382 6.104C109.382 7.42 108.878 8.176 107.366 8.176Z" fill="black"/>
  </g>
  <defs>
    <clipPath id="clip0_114_2168">
      <rect width="140" height="17.36" fill="white"/>
    </clipPath>
  </defs>
</svg>