<svg xmlns="http://www.w3.org/2000/svg" width="134" height="30" viewBox="0 0 134 30" fill="none">
  <path d="M122.473 9.07918C116.884 9.07918 112.348 13.6081 112.348 19.1969C112.348 19.8328 112.412 20.4475 112.532 21.0481H117.633C117.414 20.4758 117.287 19.854 117.287 19.1969C117.287 16.3354 119.612 14.0179 122.473 14.0179C125.342 14.0179 127.659 16.3354 127.659 19.1969C127.659 22.0655 125.342 24.383 122.473 24.383C121.83 24.383 121.208 24.2558 120.636 24.0438V29.1451C121.23 29.2581 121.844 29.3217 122.473 29.3217C124.628 29.3217 126.324 28.5445 127.857 26.9195V29.2511H132.598V19.1969C132.598 13.6081 128.062 9.07918 122.473 9.07918ZM85.9587 8.87428C80.3134 8.87428 75.7421 13.4527 75.7421 19.098C75.7421 19.7339 75.7985 20.3627 75.9113 20.9633H81.0691C80.8501 20.3839 80.7302 19.7551 80.7302 19.098C80.7302 16.2012 83.0759 13.8625 85.9586 13.8625C88.8484 13.8625 91.2012 16.2012 91.2012 19.098C91.2012 21.9878 88.8484 24.3335 85.9586 24.3335C85.3086 24.3335 84.6797 24.2064 84.1074 23.9873V29.1451C84.708 29.2582 85.3298 29.3218 85.9586 29.3218C91.6039 29.3218 96.1894 24.7433 96.1894 19.098C96.1894 13.4527 91.6041 8.87428 85.9587 8.87428ZM31.8159 19.098V8.87429H26.8277V19.098C26.8277 19.7339 26.8841 20.3627 27.0041 20.9633H32.1618C31.9357 20.3839 31.8159 19.7551 31.8159 19.098ZM41.5944 8.87429V19.098C41.5944 21.9878 39.2486 24.3335 36.3588 24.3335C35.7017 24.3335 35.08 24.2064 34.5006 23.9873V29.1451C35.1012 29.2582 35.7229 29.3218 36.3588 29.3218C42.0041 29.3218 46.5826 24.7433 46.5826 19.098V8.87431L41.5944 8.87429ZM62.1831 8.87429C60.2896 8.87429 58.5232 9.39007 57.0041 10.2874V0.678359H51.9028V20.9633H57.2938C57.0749 20.3839 56.9477 19.7551 56.9477 19.098C56.9477 16.2012 59.2864 13.8625 62.1833 13.8625C65.0731 13.8625 67.4187 16.2012 67.4187 19.098C67.4187 21.9878 65.0731 24.3335 62.1833 24.3335C61.5262 24.3335 60.9044 24.2064 60.3251 23.9874V29.1451C60.9256 29.2582 61.5403 29.3218 62.1833 29.3218C67.8286 29.3218 72.3999 24.7434 72.3999 19.098C72.3999 13.4527 67.8284 8.87429 62.1831 8.87429ZM26.8489 0.678377H20.3628L7.37646 15.0001L20.3628 29.3147H26.8489L13.9049 15.0001L26.8489 0.678377ZM110.405 8.87432H105.389V0.678367H100.294V29.2511H105.389V13.9756H110.405V8.87432ZM5.76549 20.9916H0.678345V0.678345H5.76549V20.9916Z" fill="black"/>
</svg>