<svg xmlns="http://www.w3.org/2000/svg" width="160" height="96" viewBox="0 0 160 96" fill="none">
  <rect width="160" height="96" fill="white"/>
  <path fill-rule="evenodd" clip-rule="evenodd" d="M100.983 21.7281C94.6795 18.7018 87.4928 17 79.991 17C72.4893 17 65.303 18.7018 58.9993 21.7909C56.7922 27.0865 55.5947 32.9493 55.5947 39.0014C55.5947 45.1163 56.7927 50.9157 58.9993 56.2742C65.303 59.3 72.4893 61.065 79.991 61.065C87.4928 61.065 94.6795 59.3 100.983 56.2742C103.19 50.9796 104.451 45.1168 104.451 39.0014C104.451 32.9493 103.19 27.0865 100.983 21.7281Z" fill="black"/>
  <path fill-rule="evenodd" clip-rule="evenodd" d="M99.4704 23.0522C93.6082 20.3418 86.9251 18.7656 79.991 18.7656C73.0569 18.7656 66.3744 20.3418 60.5116 23.0522C58.5577 28.0329 57.4858 33.3908 57.4858 39.0014C57.4858 44.612 58.5572 50.0333 60.5116 54.9507C66.3744 57.7244 73.0569 59.2373 79.991 59.2373C86.9251 59.2373 93.6709 57.7244 99.4704 54.9507C101.487 50.0333 102.559 44.6753 102.559 39.0014C102.559 33.3908 101.425 28.0324 99.4704 23.0522Z" fill="white"/>
  <path fill-rule="evenodd" clip-rule="evenodd" d="M73.1824 33.8949C72.1738 35.9754 71.4806 38.2448 71.1652 40.8296C71.1019 40.8296 70.5976 40.8929 70.5976 40.8929C68.391 41.0822 66.1849 41.2711 64.0411 42.0903L64.1672 42.9101C67.6978 47.2599 73.0558 49.9075 73.0558 49.9075L72.0472 47.9531C71.795 47.7642 71.0386 47.5748 71.0386 47.5748C68.6431 46.8184 66.9409 43.6665 66.6887 43.1622C68.6431 43.1622 70.4082 43.7293 72.0472 44.2969C73.1818 44.6123 74.2537 44.99 75.3251 45.1166C77.2162 45.4316 79.1707 45.1166 80.9985 44.864C82.4486 44.6751 83.836 44.6751 85.2233 44.8007C85.4116 44.99 86.8618 46.7551 88.3119 47.5115C90.0769 48.3941 95.1832 49.9697 95.4354 50.033C95.5609 50.0963 97.5159 52.113 98.7761 54.3829C92.9756 57.031 86.4835 58.4168 79.9899 58.4168C73.4968 58.4168 67.0036 57.0305 61.2042 54.3829C59.3131 49.466 58.3045 44.2964 58.3045 39.0012C58.3045 33.7688 59.3131 28.5992 61.2042 23.6828C67.0036 21.0347 73.4968 19.6484 79.9899 19.6484C86.5463 19.6484 93.0394 21.0353 98.7761 23.6828C100.667 28.5998 101.675 33.7688 101.675 39.0012C101.68 43.7892 100.87 48.5431 99.2799 53.0594C97.4521 49.907 96.6961 48.9617 96.6961 48.9617C96.6334 48.9617 94.1113 47.6376 93.481 47.07C92.9761 46.6285 92.725 45.7465 92.4091 44.7374C92.0308 43.2878 91.5276 41.5222 90.1402 40.0726L91.7159 39.4417C91.2749 36.4792 87.7448 34.5881 87.682 34.5881L87.6182 34.6514C89.0056 36.3531 89.2577 37.74 89.2577 38.623C89.2577 39.064 89.1949 39.3789 89.1322 39.505C88.7534 39.3161 86.1691 38.4964 80.1803 38.7486C79.3606 38.7486 78.0998 38.6858 77.3434 37.9921C76.9018 37.6139 76.713 36.9835 76.713 36.2898C76.713 34.2098 77.5955 31.4357 77.7216 31.058L79.235 31.2468C81.1261 30.2382 81.8193 29.2924 81.8821 29.1668C80.3064 29.3562 78.2264 29.7339 78.2264 29.7339C78.3525 29.4185 78.7307 28.221 78.7307 26.897C78.7307 25.4469 78.2897 23.8712 76.4614 22.9254L76.3348 22.9886C76.3981 23.0514 77.4061 24.1861 77.4061 25.699C77.4061 26.1405 77.3434 26.6448 77.154 27.0858C76.5236 26.897 76.1454 26.8342 75.4517 26.8342C75.074 25.5729 74.0026 24.5643 72.5525 24.06L72.4892 24.1228C72.4892 24.1228 74.0654 25.258 74.1282 26.8342C73.3717 26.897 72.9307 27.0231 71.9849 27.2752C71.5434 26.6448 70.6609 26.1405 69.4629 26.0145V26.141C69.4629 26.141 70.8497 26.582 71.1019 27.6539C70.2832 28.0322 69.274 28.5992 68.7064 29.1041L68.7697 29.1674C72.2998 27.8433 75.5778 27.5284 76.3975 28.537C76.5864 28.7258 76.6497 28.9152 76.6497 29.1674C76.6497 29.419 76.5231 29.7977 76.2715 30.176C74.5697 30.5542 71.9221 31.2473 69.7789 32.0671L70.0938 32.9496C70.0938 32.9496 72.2371 33.3911 73.0568 33.5805C73.0568 33.5805 73.3717 33.6433 73.1824 33.8949ZM34 76.7189C34 76.7189 35.1404 77.1335 36.4188 77.1335C37.8009 77.1335 38.63 76.927 39.1136 76.4424C39.4939 76.0626 39.6666 75.4058 39.6324 74.4044V67.9082H41.6709V74.7157C41.6366 77.7213 40.1855 79.0002 36.7991 79.0002C35.1404 79.0002 34 78.7237 34 78.7237V76.7189ZM47.6135 69.8782C50.8614 69.8782 52.7618 71.6059 52.7618 74.5082C52.7618 76.5814 51.4144 79.0002 47.6135 79.0002C43.7783 79.0002 42.4309 76.5814 42.4309 74.5082C42.4304 71.6059 44.3651 69.8782 47.6135 69.8782ZM50.7576 74.405C50.7576 72.643 49.6177 71.6407 47.6135 71.6407C45.6093 71.6407 44.4352 72.643 44.4352 74.405C44.4352 76.8575 46.4389 77.204 47.6135 77.204C48.7881 77.204 50.7576 76.8569 50.7576 74.405ZM60.881 70.0857V73.5406H55.6636V70.0857H53.6599V78.7927H55.6636V75.3025H60.881V78.7927H62.92V70.0857H60.881ZM91.2178 76.996V75.3025H95.8473V73.5406H91.2178V71.8471H97.1953V70.0857H89.1789V78.7927H97.1953V76.996H91.2178ZM100.271 76.996V75.3025H104.901V73.5406H100.271V71.8471H106.282V70.0857H98.2661V78.7927H106.282V76.996H100.271ZM119.274 76.996V75.3025H123.904V73.5406H119.274V71.8471H125.286V70.0857H117.269V78.7927H125.286V76.996H119.274ZM82.3033 69.7059C84.9291 69.7059 86.4498 71.0181 86.4498 73.2983C86.4498 76.5124 83.8588 76.996 82.3033 76.996H79.4353V69.7059H82.3033ZM82.3033 67.9082H77.4316V78.7927H82.3033C86.8644 78.7927 88.4535 75.8904 88.4535 73.4374C88.453 69.9814 86.1385 67.9082 82.3033 67.9082ZM114.09 75.4758C115.646 75.096 116.198 73.9204 116.198 72.8838C116.198 71.1218 115.058 70.0857 113.089 70.0857H107.388V78.7922H109.391V75.6133H111.776L114.195 78.7922H116.648L114.09 75.4758ZM109.392 73.8171V71.8471H113.09C113.78 71.8471 114.195 72.228 114.195 72.8148C114.195 73.6791 113.504 73.8171 113.09 73.8171H109.392ZM71.3851 78.7927L66.1325 72.8495V78.7927H64.1293V70.0857H66.1325L71.3851 75.9594V70.0857H73.3889V78.7927H71.3851Z" fill="black"/>
</svg>